<svg xmlns="http://www.w3.org/2000/svg" version="1.1" xlink="http://www.w3.org/1999/xlink" xmlns:svgjs="http://svgjs.com/svgjs" width="100%" height="100%" preserveAspectRatio="xMidYMid meet" viewBox="0.000009908305401040707 2.60718113764824e-10 300.0000305175781 121.21585083007812" overflow="visible"><defs id="SvgjsDefs211088"></defs><g id="SvgjsG211089" transform="scale(0.6493506493506493)" opacity="1"><g id="SvgjsG211090" class="JA3qKuV1K" transform="translate(153.14194446816762, 0.0017955199306583032) scale(4.0620624228843045)" light-content="false" non-strokable="false" fill="#fff"><g><path d="M26.238 4.07c.251.107.501.233.761.358.085.041.166.089.25.134l.248.136.25.136c.084.044.163.098.245.147.163.101.325.202.487.305.159.111.315.225.473.343.072.057.149.109.223.168l.221.176c.073.059.148.117.223.176.075.059.152.116.222.18l.431.374.106.094.101.1.198.201c.079.082.158.159.239.233l.233.227.234.225c.079.075.158.153.231.239a18.4 18.4 0 0 1 1.852 2.418c.036.051.078.127.104.175.151.292.318.564.46.846l.223.417c.071.14.137.284.203.427l.129.279c.044.092.076.188.108.271.11.303.224.58.315.858.048.138.098.273.148.408.051.135.09.274.138.411l.149.454.126.479c.092.328.15.684.221 1.075.018.095.027.19.041.283l.039.272.041.261.021.128.016.125.062.487.031.236.019.234c.024.296.066.4.106.634l.035-.763c.007-.123.003-.241.005-.355l.002-.331c0-.116.004-.237-.003-.363a17.278 17.278 0 0 0-.029-.396c-.01-.138-.023-.283-.039-.436l-.073-.48a13.658 13.658 0 0 0-.471-1.962c-.051-.159-.109-.314-.162-.471l-.082-.235a3.57 3.57 0 0 0-.087-.232l-.186-.463-.093-.232-.102-.229a11.082 11.082 0 0 0-.398-.781c-.228-.448-.535-.953-.741-1.314a9.972 9.972 0 0 0-.451-.692c-.152-.201-.294-.396-.45-.606-.107-.139-.22-.281-.322-.416a14.294 14.294 0 0 0-2.307-2.33c-.106-.087-.212-.175-.326-.256l-.34-.254a15.802 15.802 0 0 0-.175-.133l-.184-.129a17.036 17.036 0 0 0-3.47-1.919l-.434-.164c-.146-.053-.289-.112-.435-.154l-.421-.127c-.135-.039-.262-.079-.383-.103a11.398 11.398 0 0 0-.616-.124c-.181-.03-.336-.038-.449-.044a4.599 4.599 0 0 1-.443-.048 22.238 22.238 0 0 1-.579-.076c-.106-.015-.211-.034-.323-.048-.111-.012-.226-.024-.339-.038-.231-.023-.465-.058-.698-.068-.168-.01-.343-.024-.517-.037a2.565 2.565 0 0 0-.262-.012l-.256-.006c-.099-.001-.191.002-.283.004-.093.004-.187.006-.288.016.134.004.267.024.4.034.134.012.271.023.413.033.143.006.29.024.446.04.157.016.322.03.5.044.461.048.92.116 1.373.204a16.805 16.805 0 0 0-4.542-.204c.049-.007.098-.013.144-.017a14.1 14.1 0 0 0 .437-.068c.131-.024.251-.037.362-.058a1.395 1.395 0 0 0-.272-.039 6.17 6.17 0 0 0-.407.001c-.151.004-.317.01-.486.019l-.511.05a7.954 7.954 0 0 0-.888.128 3.8 3.8 0 0 0-.695.193 3.43 3.43 0 0 1-.214.073c-.082.027-.171.052-.247.083-.37.142-.713.235-1.078.329a5.41 5.41 0 0 0-.718.218 62.05 62.05 0 0 0-.409.147c-.136.047-.265.107-.398.159l-.394.162c-.131.056-.257.119-.387.178-.408.184-.799.385-1.194.616a16.12 16.12 0 0 0-2.31 1.714A15.66 15.66 0 0 0 6.22 8.197l-.179.211a8.632 8.632 0 0 0-.17.22c-.115.145-.227.292-.342.438-.107.153-.213.305-.321.456-.053.077-.108.152-.16.229l-.15.236c-.099.158-.202.314-.298.473l-.277.485c-.096.161-.178.329-.263.495-.082.167-.17.33-.248.499l-.178.404c-.059.134-.122.267-.171.404l-.157.411-.079.206c-.026.068-.047.139-.07.208l-.18.534c-.059.179-.105.36-.152.532-.104.364-.173.731-.261 1.093-.039.183-.068.367-.105.55-.033.184-.072.369-.093.557-.03.227-.066.47-.087.71-.017.241-.031.476-.039.687-.013.868.01 1.753.101 2.641.099.888.255 1.777.482 2.65l.133.484c.023.082.042.163.068.242l.079.239c.067.193.128.39.202.582.076.19.151.381.228.571.043.112.094.218.143.327l.148.325c.095.217.211.426.317.638.288.565.622 1.104.97 1.634.087.132.183.259.274.388.093.128.182.26.28.384l.295.373.145.187.156.18.366.422c.126.136.255.27.383.405l.192.203.202.192c.134.128.268.257.404.382a17.178 17.178 0 0 0 2.114 1.603c.167.105.37.237.497.322.323.206.666.405 1.014.572.123.061.244.122.366.181l.374.163.373.163c.127.05.252.099.381.148 1.399.559 2.878.908 4.375 1.077.473.042.962.087 1.417.1l.371.016c.123 0 .245-.003.367-.005.245-.007.492-.005.75-.033l.371-.033c.124-.01.249-.017.371-.037l.743-.1c.245-.044.493-.089.737-.135.246-.05.488-.112.73-.168l.142-.034.142-.041.283-.082c.188-.055.379-.104.563-.172l.551-.19c.181-.069.356-.145.53-.216l.224-.092c.074-.031.146-.067.22-.101l.436-.204c.147-.065.286-.145.431-.218l.433-.226c.81-.446 1.606-.977 2.288-1.535.316-.252.623-.521.922-.8a16.682 16.682 0 0 0 5.506-12.405c-.001-6.685-3.924-12.453-9.592-15.132z"></path><path d="M1.419 18.231c0-.074.004-.146.01-.219l.014-.218.031-.439c.016-.177.044-.355.066-.534l.036-.267.019-.134.024-.133c.068-.354.125-.711.214-1.061.058-.243.105-.49.177-.729l.1-.361c.033-.121.065-.241.109-.358a17.755 17.755 0 0 1 2.42-4.795l.393-.54.42-.52c.071-.085.136-.175.21-.256l.216-.245.211-.241.103-.119c.034-.039.07-.076.106-.113.195-.206.363-.378.51-.525.154-.144.29-.258.411-.36.108-.1.207-.198.306-.286l.291-.248c.188-.16.359-.312.545-.449l.469-.358c.16-.114.323-.224.485-.336l.244-.169.249-.156.494-.309a16.412 16.412 0 0 1 3.036-1.405c.08-.032.163-.056.246-.082l.248-.077c.165-.051.328-.107.495-.152l.501-.132.25-.066.254-.054.506-.108c.169-.036.341-.059.511-.089l.255-.042c.085-.015.17-.029.257-.038l.515-.06.241-.027.243-.016.482-.033a19.168 19.168 0 0 1 2.898.07c1.128.115 2.22.319 3.316.647 1.072.322 2.139.757 3.141 1.303.472.271.85.468 1.148.65.153.088.289.164.417.231s.238.136.346.192a1.812 1.812 0 0 0-.208-.209 16.001 16.001 0 0 0-.78-.564l-.468-.291a8.908 8.908 0 0 0-.845-.471 4.308 4.308 0 0 0-.719-.293 4.192 4.192 0 0 1-.229-.08c-.088-.031-.179-.068-.265-.091a11.852 11.852 0 0 1-1.138-.425 5.984 5.984 0 0 0-.756-.281l-.445-.141c-.147-.048-.297-.081-.444-.123l-.443-.119c-.148-.037-.298-.066-.448-.1-.469-.11-.934-.191-1.422-.252a17.289 17.289 0 0 0-5.701.348l-.29.062c-.097.023-.193.05-.29.076l-.579.153-.572.179c-.096.03-.192.059-.287.091l-.282.103c-.189.07-.378.135-.564.209l-.555.233c-.092.04-.186.074-.276.12l-.271.13c-.18.088-.364.169-.54.264l-.417.227c-.137.077-.278.148-.411.233l-.401.248-.203.124c-.067.043-.131.088-.196.132l-.503.339c-.168.114-.325.239-.478.355-.327.242-.627.51-.939.762-.153.13-.299.269-.449.402-.15.136-.302.269-.444.415-.174.176-.364.359-.54.551-.17.195-.336.386-.482.56a23.874 23.874 0 0 0-1.646 2.321 20.101 20.101 0 0 0-1.322 2.581l-.204.501c-.033.084-.07.166-.1.251l-.089.255-.106.314c-.034.105-.073.208-.101.316l-.18.638c-.037.123-.063.248-.093.373l-.085.374c-.063.249-.101.501-.147.753a18.473 18.473 0 0 0-.241 2.031c-.013.17-.014.341-.021.511-.004.169-.015.34-.013.51l.007.512.004.255.014.256.037.599c.018.2.041.399.062.598l.032.298.045.297c.032.197.061.395.096.592.177.938.436 1.856.755 2.752.075.2.161.446.214.601.142.387.303.781.494 1.151l.192.396.213.384.211.384.228.375a18.18 18.18 0 0 0 3.035 3.784c.376.347.766.705 1.147 1.013l.306.256c.105.08.211.157.318.235.213.154.424.316.663.462l.337.216c.113.072.224.147.341.212l.7.4.718.368c.243.116.49.223.735.334l.144.065.148.058.296.116c.197.077.392.159.594.221l.596.199c.199.06.399.11.593.163l.252.067c.084.024.169.038.252.058l.507.112c.167.041.339.064.51.097l.518.09c.984.149 2.013.217 2.96.188a20.275 20.275 0 0 0 2.336-.197l.581-.094.146-.023.143-.03.287-.062.284-.062.144-.031.14-.038.557-.152c.1-.025.197-.057.295-.088l.292-.091c.193-.06.387-.115.574-.187l.566-.201c.185-.072.37-.152.554-.229a17.76 17.76 0 0 0 3.347-1.898 13.483 13.483 0 0 0 2.157-1.912l.371-.422c.064-.069.12-.145.177-.215l.164-.209c.104-.137.2-.262.278-.373.074-.115.132-.212.166-.286.085-.171.174-.355.259-.528-.077.033-.24.193-.454.43l-.17.192c-.061.067-.128.135-.195.207-.137.145-.283.302-.434.467-.145.142-.297.297-.44.443a17.52 17.52 0 0 1-2.798 2.296c-.1.073-.208.133-.313.199l-.317.195c-.831.485-1.711.901-2.599 1.25-1.163.452-2.396.748-3.606.962-.907.11-1.763.197-2.6.225-.093.003-.215.007-.32.006-1.054.01-2.15-.106-3.2-.297a17.018 17.018 0 0 1-3.181-.917c-.087-.035-.175-.066-.263-.101l-.256-.114-.513-.228-.499-.254-.247-.128c-.083-.041-.161-.092-.242-.137l-.478-.282-.118-.071-.115-.077-.23-.154c-.151-.104-.306-.202-.454-.312l-.435-.333c-.065-.051-.139-.105-.214-.16l-.216-.172c-.175-.14-.353-.278-.527-.42l-.503-.447-.127-.112c-.041-.038-.08-.078-.121-.118l-.239-.238-.239-.238c-.081-.079-.152-.167-.228-.25-.138-.158-.293-.319-.439-.48a17.414 17.414 0 0 1-1.721-2.322l-.263-.436c-.084-.146-.162-.297-.242-.445l-.116-.223-.059-.112-.055-.114-.219-.458c-.035-.076-.073-.152-.108-.229l-.099-.233-.199-.467c-.066-.156-.12-.317-.182-.474l-.09-.238c-.03-.079-.062-.158-.086-.239a15.526 15.526 0 0 1-.668-2.707l-.051-.324c-.019-.108-.038-.216-.048-.326l-.082-.653c-.022-.218-.032-.436-.044-.654-.005-.109-.014-.218-.009-.327a4.369 4.369 0 0 1 .009-.323c.001-.052-.01-.207-.01-.305-.003-.154.007-.305.01-.455l.009-.443zm35.486-3.807l-.062-.227-.074-.23a18.213 18.213 0 0 0-1.703-3.908c-.085-.14-.174-.282-.262-.424-.09-.141-.174-.285-.271-.417l-.273-.385c-.09-.123-.173-.24-.26-.34a15.68 15.68 0 0 0-.442-.511c-.134-.144-.26-.253-.351-.334a4.607 4.607 0 0 1-.343-.333c-.134-.132-.286-.281-.443-.445-.08-.081-.159-.168-.245-.252l-.265-.254c-.181-.172-.358-.354-.551-.515-.137-.12-.277-.246-.417-.372a4.114 4.114 0 0 0-.215-.181l-.216-.172c-.083-.065-.164-.124-.245-.183a5.079 5.079 0 0 0-.254-.177c.111.091.212.193.321.289.107.098.218.196.333.298.118.098.233.209.357.325.123.116.256.236.399.364a17.304 17.304 0 0 1 2.416 2.829l.312.481c.05.082.106.161.155.247l.151.26c.093.143.187.288.281.436l.27.46c.19.308.35.646.522.992.047.09.085.185.126.278l.124.279.123.28c.042.093.075.19.113.285.073.192.146.386.217.58.062.198.122.399.179.602.026.096.058.192.081.29l.073.296.076.297c.026.099.054.198.073.299l.123.603.029.149.021.151c.014.101.025.201.039.301.015.121.033.239.053.356l.05.347.052.346c.017.117.034.234.041.354a19.508 19.508 0 0 1-.004 3.279c-.002.068-.017.16-.026.219-.061.349-.096.69-.16 1.024l-.083.5c-.031.167-.07.332-.106.498l-.072.323c-.023.108-.058.21-.085.304-.105.331-.189.642-.292.939-.049.15-.097.298-.142.446-.045.149-.102.292-.152.441l-.171.484-.207.492c-.137.341-.321.683-.517 1.062-.047.095-.102.182-.15.269l-.145.258-.137.25c-.021.041-.042.082-.065.122l-.07.117-.267.456-.129.222a8.533 8.533 0 0 1-.137.211c-.174.268-.21.382-.331.608l.526-.631c.085-.1.16-.205.234-.302.077-.098.148-.192.217-.281.076-.1.157-.201.232-.314.075-.112.152-.23.233-.356.08-.125.165-.257.25-.398l.251-.458c.355-.646.629-1.313.881-1.981.059-.168.112-.338.169-.507l.083-.254c.029-.085.057-.17.078-.256l.146-.515.071-.259c.022-.087.042-.175.062-.262.069-.297.125-.603.173-.927.044-.266.1-.555.129-.835l.052-.406.028-.188c.007-.06.012-.12.02-.174.02-.166.034-.32.046-.465.011-.146.022-.284.022-.42l.013-.813c-.002-.189-.005-.383-.003-.565-.005-1.062-.147-2.098-.346-3.066l-.099-.432a5.787 5.787 0 0 0-.109-.431c-.046-.147-.087-.293-.129-.442z"></path><path d="M24.022 37.054c-.082.021-.17.041-.263.063-.093.021-.192.039-.295.061-.206.042-.428.09-.658.141-.213.035-.438.075-.65.116a18.483 18.483 0 0 1-3.816.282l-.099-.001-.098-.005-.197-.011-.392-.026a19.668 19.668 0 0 1-3.008-.5c-1.28-.316-2.527-.81-3.704-1.362-.852-.455-1.643-.9-2.383-1.388-.082-.054-.19-.125-.28-.19-.917-.632-1.794-1.401-2.584-2.203a17.9 17.9 0 0 1-2.19-2.729l-.166-.247-.152-.256-.305-.509c-.091-.175-.185-.349-.276-.522l-.135-.261c-.047-.086-.084-.176-.126-.265a49.372 49.372 0 0 1-.241-.535c-.02-.043-.041-.088-.06-.133l-.053-.136-.105-.273-.104-.272c-.034-.091-.071-.179-.099-.273l-.176-.553a10.095 10.095 0 0 0-.087-.268l-.082-.28c-.065-.228-.135-.455-.199-.683l-.163-.693-.041-.173c-.014-.058-.021-.117-.033-.175l-.062-.352-.062-.352c-.021-.117-.03-.236-.045-.354-.025-.222-.06-.456-.088-.683a18.51 18.51 0 0 1-.075-3.052l.038-.537c.017-.178.042-.355.063-.533l.032-.266.016-.133c.006-.045.015-.089.022-.132l.088-.528c.016-.088.029-.177.045-.265l.057-.262.113-.524c.038-.175.088-.346.131-.52l.066-.261c.023-.086.043-.174.071-.259a16.61 16.61 0 0 1 1.068-2.745l.153-.312.075-.156c.024-.052.053-.103.081-.154.108-.206.218-.41.327-.614.114-.202.238-.397.36-.593.062-.097.12-.196.188-.288l.206-.273c.034-.043.118-.184.178-.269.091-.136.192-.26.285-.387l.277-.376c.045-.064.092-.125.142-.184l.145-.18.294-.359c.12-.144.252-.281.38-.422l.194-.209c.034-.035.065-.071.099-.104l.101-.101c.274-.265.542-.54.831-.787.197-.176.389-.359.596-.523l.307-.252c.101-.083.202-.167.311-.242a18.758 18.758 0 0 1 5.006-2.674c.222-.074.443-.149.667-.226l.679-.194c.113-.031.224-.069.337-.094l.336-.08.329-.081.161-.04c.054-.014.108-.022.16-.034.295-.059.545-.106.762-.144.218-.029.405-.046.571-.061.155-.021.3-.045.44-.061l.402-.038c.259-.024.502-.05.745-.056l.621-.024c.209-.001.417.003.625.004l.312.004.309.017.616.034a17.505 17.505 0 0 1 3.737.712l.261.084c.173.058.351.107.521.169l.513.191.258.095.251.106.503.214c.168.072.33.157.495.234l.246.119c.082.039.165.079.244.124l.481.261c.075.041.151.082.225.124l.219.133.437.265a20.09 20.09 0 0 1 2.459 1.824 18.615 18.615 0 0 1 2.467 2.575c.73.93 1.386 1.954 1.92 3.035.243.52.449.92.596 1.26.077.168.149.317.218.453.036.066.064.133.094.195l.086.181a1.812 1.812 0 0 0-.056-.306 7.48 7.48 0 0 0-.143-.439c-.057-.162-.122-.339-.188-.52l-.229-.535a9.28 9.28 0 0 0-.445-.918 4.633 4.633 0 0 0-.44-.69c-.042-.053-.093-.128-.149-.209-.055-.081-.112-.17-.17-.241a12.795 12.795 0 0 1-.723-1.057 6.745 6.745 0 0 0-.484-.701l-.3-.392c-.048-.065-.101-.127-.153-.188l-.156-.185-.311-.373c-.104-.121-.218-.237-.327-.356-.172-.185-.336-.377-.521-.551-.181-.176-.359-.358-.554-.529a18.261 18.261 0 0 0-2.643-1.919 17.835 17.835 0 0 0-2.485-1.242l-.29-.122c-.097-.04-.197-.074-.295-.111l-.592-.22-.603-.192c-.101-.032-.2-.065-.302-.095l-.306-.083c-.206-.054-.409-.112-.614-.162l-.622-.136c-.103-.021-.205-.048-.31-.063L22.396.27l-.313-.053c-.104-.016-.208-.037-.314-.048-.166-.018-.331-.038-.497-.057-.167-.017-.33-.041-.497-.047l-.498-.031-.25-.016c-.082-.004-.165-.003-.249-.005L19.139 0c-.213-.003-.426.01-.629.017-.429.009-.85.058-1.273.087-.21.019-.421.05-.631.074-.211.026-.423.049-.634.089-.257.046-.532.089-.8.148-.265.063-.525.128-.756.189-.946.277-1.898.602-2.831 1.002-.929.408-1.84.882-2.709 1.424l-.48.31c-.079.052-.161.101-.237.156l-.232.167-.282.206c-.094.069-.191.135-.279.211l-.544.44c-.105.084-.204.177-.305.267l-.301.271c-.205.176-.392.372-.585.561a19.318 19.318 0 0 0-1.443 1.606c-.111.139-.217.285-.326.428l-.162.216c-.055.073-.11.143-.16.219l-.304.445-.152.222-.143.231-.332.539c-.105.184-.206.37-.309.554l-.154.277-.14.284c-.093.19-.188.378-.277.569a19.567 19.567 0 0 0-1.021 2.835c-.057.217-.131.482-.179.648-.111.422-.212.86-.273 1.294l-.074.459-.05.46-.051.459-.031.463c-.131 1.707-.004 3.43.322 5.11.115.526.234 1.073.376 1.569l.109.408c.042.133.087.264.131.396.091.262.174.531.291.802l.161.392c.054.131.104.263.167.39.12.256.237.515.359.771l.398.753c.139.249.288.491.431.735l.084.143.092.139.184.28c.125.187.243.376.379.552.133.18.263.358.395.533.135.173.276.338.413.501l.176.211c.058.071.123.136.183.204l.37.404c.12.138.254.262.382.393l.392.393a17.648 17.648 0 0 0 2.441 1.96c.676.458 1.401.869 2.136 1.25l.558.271.14.067.142.061.284.121.284.121.142.059.144.052.573.208c.102.039.206.071.309.103l.308.098c.203.065.404.135.609.188l.61.17c.206.051.412.094.618.14 1.332.278 2.685.408 4.043.395a14.474 14.474 0 0 0 3.024-.337l.577-.137c.098-.021.191-.052.283-.078l.27-.081c.174-.053.333-.103.468-.15.134-.054.243-.102.318-.143l.547-.292c-.084-.014-.322.026-.651.102zm14.444-17.6c-.001-.16-.001-.311-.015-.45-.02-.264-.044-.503-.068-.71-.011-.103-.033-.196-.048-.281a6.146 6.146 0 0 0-.048-.22 5.252 5.252 0 0 1-.091-.497 23.458 23.458 0 0 1-.111-.653c-.02-.118-.035-.241-.057-.366l-.074-.38c-.052-.258-.095-.525-.163-.78l-.135-.573a3.476 3.476 0 0 0-.075-.288l-.082-.28a7.897 7.897 0 0 0-.099-.306c-.035-.1-.068-.201-.112-.308.042.146.067.296.103.446.034.149.069.301.108.458.042.157.073.322.11.497.037.174.078.358.124.557.265 1.291.387 2.602.37 3.908l-.023.606c-.005.101-.006.204-.015.308l-.029.316-.02.546-.048.562c-.025.38-.092.769-.153 1.171-.015.108-.039.212-.06.317l-.065.316-.064.317c-.02.106-.051.209-.076.315-.054.209-.108.42-.166.631-.067.209-.137.418-.21.628-.037.099-.067.201-.106.3l-.116.3-.115.302c-.039.102-.074.203-.12.302l-.259.595-.067.147-.073.144c-.05.094-.099.189-.15.283a7.637 7.637 0 0 0-.17.338l-.167.33-.166.33a3.852 3.852 0 0 1-.182.331 20.354 20.354 0 0 1-1.995 2.827c-.043.057-.111.127-.155.173-.264.264-.5.538-.76.787l-.376.383c-.128.124-.262.243-.395.365l-.258.234c-.086.08-.179.147-.258.21-.291.223-.552.44-.822.633-.132.1-.264.199-.393.299-.064.052-.131.097-.198.145l-.202.142c-.145.104-.291.208-.442.314l-.478.298c-.325.211-.692.394-1.091.603-.097.053-.197.094-.292.141-.096.046-.189.091-.282.134l-.269.132-.131.065-.132.058-.508.231-.246.111-.247.099c-.313.124-.413.199-.654.318l.834-.229c.135-.033.261-.08.386-.119l.356-.113c.125-.041.258-.079.39-.129a26.642 26.642 0 0 0 .872-.361l.493-.243c.699-.342 1.338-.752 1.961-1.175.154-.108.302-.223.454-.335l.226-.168c.076-.056.151-.111.224-.173l.437-.357.22-.179.212-.188c.24-.215.475-.444.712-.693.199-.203.422-.418.617-.643l.293-.318.137-.146c.045-.047.084-.095.123-.139.117-.131.222-.255.321-.373.099-.119.193-.231.275-.349.167-.231.328-.451.504-.692.113-.164.229-.334.34-.49.639-.919 1.146-1.897 1.562-2.853l.177-.431.088-.217c.031-.072.053-.147.081-.222l.161-.454.084-.233.076-.242c.47-1.431.781-2.917.905-4.404l.03-.524c.008-.176.024-.351.02-.524l-.004-.495z"></path></g></g><g id="SvgjsG211091" class="ATHoTey_1g" transform="translate(172.32525169451154, 18.772067292927243) scale(1.173616346169052)" light-content="true" non-strokable="false" fill="#414246"><path d="M43.417 26.05c2.101 0 3.222 3.501 3.081 5.882 0 .902-1.187 3.85-1.84 5.045-.122.223-.046.525.186.628 1.577.7 3.367 1.05 5.156 1.05 1.77 0 3.426-.342 4.865-.924.237-.096.313-.393.21-.627-.243-.56-.376-1.381-.593-2.79-.28-1.261-.56-3.222-1.12-5.883-1.121-5.322-3.362-5.322-6.443-5.322h-.7c-4.272 0-4.825 1.74-4.893 2.907-.012.192.17.335.358.296.483-.101 1.318-.262 1.733-.262z"></path><path d="M50 40.196c-2.42 0-4.712-.517-6.75-1.55a.51.51 0 0 0-.496.017l-3.398 2.059a1.916 1.916 0 0 0-.938 1.741C38.9 50.72 43.18 58.04 49.452 62.506a.953.953 0 0 0 1.1.005c6.391-4.466 10.557-11.788 11.031-20.048a1.919 1.919 0 0 0-.94-1.741l-3.397-2.06a.51.51 0 0 0-.495-.015c-2.039 1.032-4.33 1.549-6.751 1.549z"></path><path d="M42.157 37.115c.419-.252.632-.742.53-1.22-.783-3.663-1.674-7.307-5.852-9.005-6.252-2.43-23.22-7.35-28.918-8.983-.956-.274-1.699.436-1.206 1.301.26.456.535.864.711 1.1.42.7.98 1.12 1.68 1.4l8.404 2.101c-2.8-.56-5.742-.98-8.683-1.54h-.42v.42c.14.84.28 1.54.7 2.24.42.56.98.98 1.54 1.261l10.785 1.82c-2.801-.14-6.863-.42-9.804-.56h-.42l.14.28c.14.841.56 1.541.98 2.102.42.56.98.98 1.68.98l13.026.98h-2.52c-2.662 0-5.463 0-8.264.14h-.42l.14.28c.28.7.56 1.401.98 1.821.42.56.98.84 1.54.84h12.186c-.56 0-.98.14-1.54.14-2.522.561-5.323.841-8.124 1.121h-.42l.14.28c.28.7.7 1.4 1.12 1.821.56.42 1.12.7 1.68.7l9.105-.7c-2.661.56-5.323 1.26-7.984 1.82l-.28.14.14.281c.42.7.84 1.26 1.4 1.68.561.42 1.121.561 1.682.561l6.582-1.26-6.442 2.38-.28.14.14.28c.42.7.98 1.121 1.54 1.541.56.28 1.12.42 1.681.28l4.622-1.26c-1.96.84-3.081 1.4-5.042 2.24l-.28.14.28.28c.42.561.98 1.121 1.68 1.401.56.28 1.261.42 1.821.14l2.241-.7c-.84.84-1.54 1.681-2.38 2.521l-.28.28.28.14c.7.42 1.4.56 2.1.56.7 0 1.4-.14 1.82-.56-.42.7-.84 1.401-1.26 1.961l-.14.28.28.14c.56.28 1.12.28 1.681.28h.42c.42 0 .84-.28 1.12-.42-.56-.98-.98-2.1-1.4-3.22-.42-1.121-.7-2.242-.98-3.502-.14-.84-.28-1.821-.42-2.662-.14-.84-.14-1.82-.14-2.66 0-.613.306-1.185.815-1.525l.025-.016 4.482-2.801zm15.686 0a1.144 1.144 0 0 1-.53-1.22c.783-3.663 1.674-7.307 5.852-9.005 6.908-2.686 26.902-8.41 30.315-9.382.255-.073.485.123.41.378-.25.85-.969 1.963-1.312 2.422-.42.7-.98 1.12-1.68 1.4l-8.404 2.101c2.8-.56 5.742-.98 8.683-1.54h.42v.42c-.14.84-.28 1.54-.7 2.24-.42.56-.98.98-1.54 1.261l-10.785 1.82c2.801-.14 6.863-.42 9.804-.56h.42l-.14.28c-.14.841-.56 1.541-.98 2.102-.42.56-.98.98-1.68.98l-13.026.98h2.52c2.662 0 5.463 0 8.264.14h.42l-.14.56c-.28.701-.56 1.401-.98 1.821-.42.56-.98.84-1.54.84H69.327c.56 0 .98.14 1.54.14 2.662.281 5.463.421 8.264.701h.42l-.14.28c-.28.7-.7 1.4-1.12 1.821-.7.7-1.26.84-1.82.84l-9.105-.7c2.661.56 5.322 1.26 7.984 1.82l.28.14-.14.281c-.42.7-.84 1.26-1.4 1.68a2.697 2.697 0 0 1-1.682.561l-6.582-1.26 6.442 2.38.28.14-.14.28c-.42.7-.98 1.121-1.54 1.541-.56.28-1.12.42-1.681.28l-4.622-1.26c1.96.84 3.081 1.4 5.042 2.24l.28.14-.14.14c-.42.561-.98 1.121-1.68 1.401-.56.28-1.261.42-1.821.14l-2.241-.7c.84.84 1.54 1.68 2.38 2.521l.281.28-.28.14c-.7.42-1.4.56-2.101.56-.7 0-1.4-.14-1.82-.56.42.7.84 1.401 1.26 1.961l.14.28-.28.14c-.56.28-1.12.28-1.681.28h-.42c-.42 0-.84-.28-1.12-.42.56-.98.98-2.1 1.4-3.22.42-1.121.7-2.242.98-3.502.14-.84.28-1.821.42-2.662.14-.84.14-1.82.14-2.66 0-.613-.306-1.185-.815-1.525l-.025-.016-4.622-2.661zm-.039 41.835a.979.979 0 0 0 .493-1.172c-.28-.918-.738-2.444-1.014-3.548L50 68.768l-7.283 5.322c-.272 1.177-.719 2.647-1.001 3.54a.984.984 0 0 0 .492 1.185c.714.352 1.779.845 2.47 1.017.42-2.1.98-4.341 1.26-6.442-.242 2.185-.38 4.58-.595 6.64a.998.998 0 0 0 .809 1.094c.47.083.968.166 1.467.25.14-2.382.56-5.323.98-8.124-.121 2.795-.348 5.907-.498 8.329a.995.995 0 0 0 .995 1.055h1.954c.572 0 1.027-.478 1-1.05-.124-2.734-.262-6.351-.51-9.315.28 2.942.841 6.443 1.121 9.104l1.514-.168c.554-.062.95-.564.885-1.118-.242-2.04-.499-4.401-.858-6.557.42 2.1.98 4.342 1.4 6.302.518-.086 1.513-.544 2.202-.883z"></path><path d="M84.735 43.557c0-.14-.14-.14-.14-.14l.28-.28h.28c.84 0 1.4-.7 1.4-1.4s-.7-1.401-1.4-1.401c-.84 0-1.4.7-1.4 1.4l-23.53 16.107c-.256-.425-.511-.799-.704-1.09-.128-.194-.436-.2-.563-.004-.91 1.414-1.936 2.91-3.075 4.176l-5.743 3.921-5.602-3.781a36.453 36.453 0 0 1-3.252-4.236.29.29 0 0 0-.493.005c-.208.349-.437.75-.737 1.15l-23.95-16.248c0-.7-.7-1.4-1.4-1.4-.841 0-1.401.7-1.401 1.4s.7 1.401 1.4 1.401c.14 0 .28 0 .42-.14l.42.28-.14.14c-3.22 7.143-7.405 19.171 4.5 28.275 8.64 6.48 17.02 4.309 20.404 2.976.394-.156.267-.724-.156-.758-4.16-.341-13.914-2.772-6.96-18.588l5.742 3.922c-1.12 1.4-2.1 2.801-2.38 3.081l-.42-.14c-.14-.14-.42-.28-.561-.42-.28-.14-.42-.14-.7-.14-.28 0-.42 0-.7.14-.42.14-.42 0-.42.14a4.51 4.51 0 0 0-.766 1.47c-.088.279.241.456.456.259a9.18 9.18 0 0 1 .73-.608c.28.14.98.14 1.4.14.14 0 .42.14.42.14.28.14.28.56.28.7-.56.42-.84 1.54-.7 2.1 0 .205-.033.443-.067.681a.264.264 0 0 0 .455.225c.135-.142.25-.3.312-.485.7-.28 1.26-1.4 1.12-2.101 0 0 .561-.28.841-.28.42 0 1.54.84 1.96.84.165.411.282.726.406 1.057.098.262.455.248.513-.025a4.615 4.615 0 0 0 .062-1.732c0-.14-.14 0-.28-.28-.14-.14-.28-.42-.56-.42-.28-.14-.42-.14-.7-.14-.28 0-.42 0-.7.14-.14 0-.28 0-.42-.14-.14-.56 2.24-1.12 4.481-1.26l5.602 3.78-6.862 4.623c-.14.14-.28.28-.42.56 0 .28 0 .42.14.7.14.14.28.28.42.28h.42c.14 0 .28 0 .42-.14l7.423-5.042 7.423 5.042c.14.14.28.14.42.14h.42c.14 0 .28-.14.42-.28v-.7c0-.28-.14-.42-.42-.56l-6.862-4.622 5.602-3.782c2.241.14 4.622.7 4.482 1.26 0 0-.28.14-.42.14-.28-.14-.42-.14-.7-.14-.28 0-.42.14-.7.14-.281.14-.421.28-.561.42-.28.281-.42.14-.28.281-.098.587-.127 1.173.007 1.76.062.271.43.252.534-.006.13-.324.285-.668.44-1.054.42 0 1.54-.84 1.96-.84.14 0 .84.28.84.28-.14.84.42 1.96 1.12 2.1.115.172.23.32.344.455a.27.27 0 0 0 .478-.197 2.88 2.88 0 0 0-.12-.677c.14-.7-.14-1.681-.701-2.101 0-.14.14-.56.28-.7.14 0 .42-.14.42-.14.42 0 1.12 0 1.4-.14.335.25.62.502.885.752.194.184.488.05.42-.208-.155-.592-.484-1.164-.884-1.665 0-.14-.14 0-.42-.14-.28-.14-.42-.14-.7-.14-.28 0-.42 0-.7.14-.281.14-.421.28-.561.42l-.42.14c-.28-.28-1.4-1.68-2.381-3.081l5.742-3.922c6.834 15.796-2.82 18.24-6.958 18.586-.423.036-.55.605-.155.76 3.384 1.334 11.763 3.503 20.401-2.976 11.906-8.964 7.861-20.992 4.5-28.135zm-67.229 2.661l-.42-1.68 14.847 10.084c-6.163 1.26-12.466-2.241-14.427-8.404zm64.988 0c-1.961 6.163-8.264 9.664-14.426 8.544l14.846-10.224c-.14.56-.14 1.12-.42 1.68z"></path></g><g id="SvgjsG211092" class="text" transform="translate(230.88, 186.3623635049701) scale(1)" light-content="false" fill="#fff"><path d="M-224.82 -0.15C-224.74 -0.07 -224.65 -0.03 -224.53 -0.03L-220.56 -0.03C-220.45 -0.03 -220.35 -0.07 -220.27 -0.15C-220.19 -0.23 -220.15 -0.33 -220.15 -0.44L-220.15 -9.13L-220.12 -9.34L-214.21 -23.29C-214.17 -23.43 -214.17 -23.54 -214.21 -23.63C-214.26 -23.72 -214.36 -23.77 -214.52 -23.77L-218.8 -23.77C-219.04 -23.77 -219.2 -23.65 -219.27 -23.43L-222.43 -14.84C-222.45 -14.77 -222.48 -14.73 -222.53 -14.73C-222.58 -14.73 -222.61 -14.77 -222.63 -14.84L-225.79 -23.43C-225.86 -23.65 -226.02 -23.77 -226.26 -23.77L-230.54 -23.77C-230.77 -23.77 -230.88 -23.67 -230.88 -23.49C-230.88 -23.4 -230.87 -23.34 -230.85 -23.29L-224.97 -9.34L-224.94 -9.13L-224.94 -0.44C-224.94 -0.33 -224.9 -0.23 -224.82 -0.15Z M-197.36 -19.78C-197.28 -19.86 -197.24 -19.95 -197.24 -20.06L-197.24 -23.36C-197.24 -23.47 -197.28 -23.57 -197.36 -23.65C-197.43 -23.73 -197.53 -23.77 -197.64 -23.77L-211.29 -23.77C-211.41 -23.77 -211.5 -23.73 -211.58 -23.65C-211.66 -23.57 -211.7 -23.47 -211.7 -23.36L-211.7 -0.41C-211.7 -0.29 -211.66 -0.2 -211.58 -0.12C-211.5 -0.04 -211.41 0 -211.29 0L-197.64 0C-197.53 0 -197.43 -0.04 -197.36 -0.12C-197.28 -0.2 -197.24 -0.29 -197.24 -0.41L-197.24 -3.7C-197.24 -3.81 -197.28 -3.91 -197.36 -3.99C-197.43 -4.07 -197.53 -4.11 -197.64 -4.11L-206.74 -4.11C-206.86 -4.11 -206.91 -4.16 -206.91 -4.28L-206.91 -9.74C-206.91 -9.86 -206.86 -9.91 -206.74 -9.91L-201.07 -9.91C-200.96 -9.91 -200.86 -9.95 -200.78 -10.03C-200.71 -10.11 -200.67 -10.21 -200.67 -10.32L-200.67 -13.61C-200.67 -13.73 -200.71 -13.82 -200.78 -13.9C-200.86 -13.98 -200.96 -14.02 -201.07 -14.02L-206.74 -14.02C-206.86 -14.02 -206.91 -14.08 -206.91 -14.19L-206.91 -19.49C-206.91 -19.6 -206.86 -19.66 -206.74 -19.66L-197.64 -19.66C-197.53 -19.66 -197.43 -19.7 -197.36 -19.78Z M-194.23 -0.12C-194.15 -0.04 -194.06 0 -193.94 0L-189.97 0C-189.86 0 -189.76 -0.04 -189.68 -0.12C-189.6 -0.2 -189.56 -0.29 -189.56 -0.41L-189.56 -15.14C-189.56 -15.23 -189.54 -15.28 -189.5 -15.29C-189.45 -15.31 -189.41 -15.28 -189.36 -15.21L-186.64 -10.15C-186.55 -9.97 -186.38 -9.88 -186.13 -9.88L-184.98 -9.88C-184.75 -9.88 -184.58 -9.97 -184.47 -10.15L-181.72 -15.18C-181.68 -15.24 -181.63 -15.28 -181.59 -15.28C-181.54 -15.28 -181.52 -15.23 -181.52 -15.14L-181.52 -0.41C-181.52 -0.29 -181.48 -0.2 -181.4 -0.12C-181.32 -0.04 -181.22 0 -181.11 0L-177.14 0C-177.03 0 -176.93 -0.04 -176.85 -0.12C-176.77 -0.2 -176.73 -0.29 -176.73 -0.41L-176.73 -23.36C-176.73 -23.47 -176.77 -23.57 -176.85 -23.65C-176.93 -23.73 -177.02 -23.77 -177.14 -23.77L-181.04 -23.77C-181.27 -23.77 -181.44 -23.67 -181.55 -23.49L-185.46 -16.4C-185.52 -16.31 -185.59 -16.31 -185.66 -16.4L-189.53 -23.49C-189.64 -23.67 -189.81 -23.77 -190.04 -23.77L-193.94 -23.77C-194.06 -23.77 -194.15 -23.73 -194.23 -23.65C-194.31 -23.57 -194.35 -23.47 -194.35 -23.36L-194.35 -0.41C-194.35 -0.29 -194.31 -0.2 -194.23 -0.12Z M-158.96 -19.78C-158.88 -19.86 -158.84 -19.95 -158.84 -20.06L-158.84 -23.36C-158.84 -23.47 -158.88 -23.57 -158.96 -23.65C-159.04 -23.73 -159.13 -23.77 -159.25 -23.77L-172.89 -23.77C-173.01 -23.77 -173.1 -23.73 -173.18 -23.65C-173.26 -23.57 -173.3 -23.47 -173.3 -23.36L-173.3 -0.41C-173.3 -0.29 -173.26 -0.2 -173.18 -0.12C-173.1 -0.04 -173.01 0 -172.89 0L-159.25 0C-159.13 0 -159.04 -0.04 -158.96 -0.12C-158.88 -0.2 -158.84 -0.29 -158.84 -0.41L-158.84 -3.7C-158.84 -3.81 -158.88 -3.91 -158.96 -3.99C-159.04 -4.07 -159.13 -4.11 -159.25 -4.11L-168.34 -4.11C-168.46 -4.11 -168.51 -4.16 -168.51 -4.28L-168.51 -9.74C-168.51 -9.86 -168.46 -9.91 -168.34 -9.91L-162.67 -9.91C-162.56 -9.91 -162.47 -9.95 -162.39 -10.03C-162.31 -10.11 -162.27 -10.21 -162.27 -10.32L-162.27 -13.61C-162.27 -13.73 -162.31 -13.82 -162.39 -13.9C-162.47 -13.98 -162.56 -14.02 -162.67 -14.02L-168.34 -14.02C-168.46 -14.02 -168.51 -14.08 -168.51 -14.19L-168.51 -19.49C-168.51 -19.6 -168.46 -19.66 -168.34 -19.66L-159.25 -19.66C-159.13 -19.66 -159.04 -19.7 -158.96 -19.78Z M-155.83 -0.12C-155.75 -0.04 -155.66 0 -155.55 0L-151.61 0C-151.49 0 -151.4 -0.04 -151.32 -0.12C-151.24 -0.2 -151.2 -0.29 -151.2 -0.41L-151.27 -13.89C-151.27 -13.98 -151.24 -14.03 -151.2 -14.04C-151.15 -14.05 -151.11 -14.02 -151.06 -13.95L-144.55 -0.31C-144.43 -0.1 -144.27 0 -144.07 0L-140.03 0C-139.92 0 -139.82 -0.04 -139.74 -0.12C-139.66 -0.2 -139.62 -0.29 -139.62 -0.41L-139.62 -23.36C-139.62 -23.47 -139.66 -23.57 -139.74 -23.65C-139.82 -23.73 -139.92 -23.77 -140.03 -23.77L-143.97 -23.77C-144.08 -23.77 -144.18 -23.73 -144.26 -23.65C-144.34 -23.57 -144.38 -23.47 -144.38 -23.36L-144.34 -9.98C-144.34 -9.89 -144.36 -9.84 -144.41 -9.83C-144.45 -9.82 -144.5 -9.85 -144.55 -9.91L-151.06 -23.46C-151.15 -23.66 -151.31 -23.77 -151.54 -23.77L-155.55 -23.77C-155.66 -23.77 -155.75 -23.73 -155.83 -23.65C-155.91 -23.57 -155.95 -23.47 -155.95 -23.36L-155.95 -0.41C-155.95 -0.29 -155.91 -0.2 -155.83 -0.12Z M-129.15 -0.12C-129.07 -0.04 -128.97 0 -128.86 0L-124.92 0C-124.81 0 -124.71 -0.04 -124.63 -0.12C-124.55 -0.2 -124.51 -0.29 -124.51 -0.41L-124.58 -13.89C-124.58 -13.98 -124.56 -14.03 -124.51 -14.04C-124.47 -14.05 -124.42 -14.02 -124.38 -13.95L-117.86 -0.31C-117.75 -0.1 -117.59 0 -117.38 0L-113.34 0C-113.23 0 -113.14 -0.04 -113.06 -0.12C-112.98 -0.2 -112.94 -0.29 -112.94 -0.41L-112.94 -23.36C-112.94 -23.47 -112.98 -23.57 -113.06 -23.65C-113.14 -23.73 -113.23 -23.77 -113.34 -23.77L-117.28 -23.77C-117.4 -23.77 -117.49 -23.73 -117.57 -23.65C-117.65 -23.57 -117.69 -23.47 -117.69 -23.36L-117.66 -9.98C-117.66 -9.89 -117.68 -9.84 -117.72 -9.83C-117.77 -9.82 -117.81 -9.85 -117.86 -9.91L-124.38 -23.46C-124.47 -23.66 -124.63 -23.77 -124.85 -23.77L-128.86 -23.77C-128.97 -23.77 -129.07 -23.73 -129.15 -23.65C-129.23 -23.57 -129.27 -23.47 -129.27 -23.36L-129.27 -0.41C-129.27 -0.29 -129.23 -0.2 -129.15 -0.12Z M-97.12 -0.34C-97.05 -0.11 -96.9 0 -96.67 0L-92.5 0C-92.25 0 -92.13 -0.1 -92.13 -0.31L-92.16 -0.44L-98.3 -23.43C-98.37 -23.65 -98.53 -23.77 -98.78 -23.77L-103.7 -23.77C-103.95 -23.77 -104.11 -23.65 -104.18 -23.43L-110.29 -0.44C-110.36 -0.15 -110.24 0 -109.95 0L-105.84 0C-105.59 0 -105.43 -0.11 -105.37 -0.34L-104.59 -3.67C-104.56 -3.76 -104.51 -3.8 -104.42 -3.8L-98.07 -3.8C-97.98 -3.8 -97.92 -3.76 -97.9 -3.67ZM-103.6 -7.55C-103.65 -7.59 -103.66 -7.64 -103.63 -7.71L-101.29 -17.35C-101.27 -17.42 -101.24 -17.46 -101.19 -17.47C-101.14 -17.48 -101.11 -17.44 -101.09 -17.35L-98.81 -7.71C-98.79 -7.64 -98.8 -7.59 -98.85 -7.55C-98.89 -7.52 -98.94 -7.5 -98.98 -7.5L-103.46 -7.5C-103.51 -7.5 -103.56 -7.52 -103.6 -7.55Z M-76.9 -23.65C-76.98 -23.73 -77.07 -23.77 -77.19 -23.77L-92.46 -23.77C-92.58 -23.77 -92.67 -23.73 -92.75 -23.65C-92.83 -23.57 -92.87 -23.47 -92.87 -23.36L-92.87 -20.03C-92.87 -19.92 -92.83 -19.82 -92.75 -19.74C-92.67 -19.66 -92.58 -19.62 -92.46 -19.62L-87.47 -19.62C-87.36 -19.62 -87.3 -19.57 -87.3 -19.45L-87.3 -0.41C-87.3 -0.29 -87.26 -0.2 -87.19 -0.12C-87.11 -0.04 -87.01 0 -86.9 0L-82.92 0C-82.81 0 -82.72 -0.04 -82.64 -0.12C-82.56 -0.2 -82.52 -0.29 -82.52 -0.41L-82.52 -19.45C-82.52 -19.57 -82.46 -19.62 -82.35 -19.62L-77.19 -19.62C-77.07 -19.62 -76.98 -19.66 -76.9 -19.74C-76.82 -19.82 -76.78 -19.92 -76.78 -20.03L-76.78 -23.36C-76.78 -23.47 -76.82 -23.57 -76.9 -23.65Z M-73.98 -0.12C-73.9 -0.04 -73.8 0 -73.69 0L-69.72 0C-69.6 0 -69.51 -0.04 -69.43 -0.12C-69.35 -0.2 -69.31 -0.29 -69.31 -0.41L-69.31 -23.36C-69.31 -23.47 -69.35 -23.57 -69.43 -23.65C-69.51 -23.73 -69.6 -23.77 -69.72 -23.77L-73.69 -23.77C-73.8 -23.77 -73.9 -23.73 -73.98 -23.65C-74.06 -23.57 -74.1 -23.47 -74.1 -23.36L-74.1 -0.41C-74.1 -0.29 -74.06 -0.2 -73.98 -0.12Z M-62.4 -0.65C-61.21 -0.01 -59.84 0.31 -58.28 0.31C-56.71 0.31 -55.33 -0.01 -54.13 -0.65C-52.93 -1.28 -52.01 -2.17 -51.35 -3.33C-50.69 -4.48 -50.37 -5.83 -50.37 -7.37L-50.37 -16.4C-50.37 -17.91 -50.69 -19.25 -51.35 -20.4C-52.01 -21.56 -52.93 -22.45 -54.13 -23.09C-55.33 -23.72 -56.71 -24.04 -58.28 -24.04C-59.84 -24.04 -61.21 -23.72 -62.4 -23.09C-63.59 -22.45 -64.51 -21.56 -65.17 -20.4C-65.82 -19.25 -66.15 -17.91 -66.15 -16.4L-66.15 -7.37C-66.15 -5.83 -65.82 -4.48 -65.17 -3.33C-64.51 -2.17 -63.59 -1.28 -62.4 -0.65ZM-56 -4.74C-56.57 -4.11 -57.33 -3.8 -58.28 -3.8C-59.2 -3.8 -59.95 -4.11 -60.52 -4.74C-61.08 -5.36 -61.37 -6.17 -61.37 -7.16L-61.37 -16.53C-61.37 -17.55 -61.08 -18.37 -60.52 -19C-59.95 -19.62 -59.2 -19.93 -58.28 -19.93C-57.33 -19.93 -56.57 -19.62 -56 -19C-55.44 -18.37 -55.15 -17.55 -55.15 -16.53L-55.15 -7.16C-55.15 -6.17 -55.44 -5.36 -56 -4.74Z M-47.06 -0.12C-46.98 -0.04 -46.88 0 -46.77 0L-42.83 0C-42.72 0 -42.62 -0.04 -42.54 -0.12C-42.46 -0.2 -42.42 -0.29 -42.42 -0.41L-42.49 -13.89C-42.49 -13.98 -42.47 -14.03 -42.42 -14.04C-42.38 -14.05 -42.33 -14.02 -42.29 -13.95L-35.77 -0.31C-35.65 -0.1 -35.5 0 -35.29 0L-31.25 0C-31.14 0 -31.04 -0.04 -30.96 -0.12C-30.88 -0.2 -30.84 -0.29 -30.84 -0.41L-30.84 -23.36C-30.84 -23.47 -30.88 -23.57 -30.96 -23.65C-31.04 -23.73 -31.14 -23.77 -31.25 -23.77L-35.19 -23.77C-35.3 -23.77 -35.4 -23.73 -35.48 -23.65C-35.56 -23.57 -35.6 -23.47 -35.6 -23.36L-35.56 -9.98C-35.56 -9.89 -35.59 -9.84 -35.63 -9.83C-35.68 -9.82 -35.72 -9.85 -35.77 -9.91L-42.29 -23.46C-42.38 -23.66 -42.53 -23.77 -42.76 -23.77L-46.77 -23.77C-46.88 -23.77 -46.98 -23.73 -47.06 -23.65C-47.13 -23.57 -47.17 -23.47 -47.17 -23.36L-47.17 -0.41C-47.17 -0.29 -47.13 -0.2 -47.06 -0.12Z M-15.02 -0.34C-14.96 -0.11 -14.81 0 -14.58 0L-10.41 0C-10.16 0 -10.03 -0.1 -10.03 -0.31L-10.07 -0.44L-16.21 -23.43C-16.28 -23.65 -16.44 -23.77 -16.69 -23.77L-21.61 -23.77C-21.86 -23.77 -22.02 -23.65 -22.08 -23.43L-28.2 -0.44C-28.26 -0.15 -28.15 0 -27.86 0L-23.75 0C-23.5 0 -23.34 -0.11 -23.27 -0.34L-22.49 -3.67C-22.47 -3.76 -22.41 -3.8 -22.32 -3.8L-15.97 -3.8C-15.88 -3.8 -15.83 -3.76 -15.8 -3.67ZM-21.51 -7.55C-21.55 -7.59 -21.56 -7.64 -21.54 -7.71L-19.2 -17.35C-19.18 -17.42 -19.14 -17.46 -19.1 -17.47C-19.05 -17.48 -19.02 -17.44 -19 -17.35L-16.72 -7.71C-16.7 -7.64 -16.71 -7.59 -16.75 -7.55C-16.8 -7.52 -16.85 -7.5 -16.89 -7.5L-21.37 -7.5C-21.42 -7.5 -21.46 -7.52 -21.51 -7.55Z M-7.27 -0.12C-7.19 -0.04 -7.09 0 -6.98 0L6.67 0C6.78 0 6.88 -0.04 6.96 -0.12C7.04 -0.2 7.08 -0.29 7.08 -0.41L7.08 -3.7C7.08 -3.81 7.04 -3.91 6.96 -3.99C6.88 -4.07 6.78 -4.11 6.67 -4.11L-2.43 -4.11C-2.54 -4.11 -2.6 -4.16 -2.6 -4.28L-2.6 -23.36C-2.6 -23.47 -2.64 -23.57 -2.72 -23.65C-2.8 -23.73 -2.89 -23.77 -3 -23.77L-6.98 -23.77C-7.09 -23.77 -7.19 -23.73 -7.27 -23.65C-7.34 -23.57 -7.38 -23.47 -7.38 -23.36L-7.38 -0.41C-7.38 -0.29 -7.34 -0.2 -7.27 -0.12Z M21.52 -0.15C21.6 -0.07 21.7 -0.03 21.81 -0.03L25.79 -0.03C25.9 -0.03 25.99 -0.07 26.07 -0.15C26.15 -0.23 26.19 -0.33 26.19 -0.44L26.19 -9.13L26.23 -9.34L32.13 -23.29C32.18 -23.43 32.18 -23.54 32.13 -23.63C32.09 -23.72 31.99 -23.77 31.83 -23.77L27.55 -23.77C27.3 -23.77 27.14 -23.65 27.08 -23.43L23.92 -14.84C23.9 -14.77 23.86 -14.73 23.82 -14.73C23.77 -14.73 23.74 -14.77 23.71 -14.84L20.56 -23.43C20.49 -23.65 20.33 -23.77 20.08 -23.77L15.8 -23.77C15.58 -23.77 15.46 -23.67 15.46 -23.49C15.46 -23.4 15.48 -23.34 15.5 -23.29L21.37 -9.34L21.41 -9.13L21.41 -0.44C21.41 -0.33 21.45 -0.23 21.52 -0.15Z M37.24 -0.65C38.43 -0.01 39.81 0.31 41.37 0.31C42.93 0.31 44.31 -0.01 45.51 -0.65C46.71 -1.28 47.64 -2.17 48.29 -3.33C48.95 -4.48 49.28 -5.83 49.28 -7.37L49.28 -16.4C49.28 -17.91 48.95 -19.25 48.29 -20.4C47.64 -21.56 46.71 -22.45 45.51 -23.09C44.31 -23.72 42.93 -24.04 41.37 -24.04C39.81 -24.04 38.43 -23.72 37.24 -23.09C36.06 -22.45 35.13 -21.56 34.48 -20.4C33.82 -19.25 33.49 -17.91 33.49 -16.4L33.49 -7.37C33.49 -5.83 33.82 -4.48 34.48 -3.33C35.13 -2.17 36.06 -1.28 37.24 -0.65ZM43.64 -4.74C43.08 -4.11 42.32 -3.8 41.37 -3.8C40.44 -3.8 39.69 -4.11 39.13 -4.74C38.56 -5.36 38.28 -6.17 38.28 -7.16L38.28 -16.53C38.28 -17.55 38.56 -18.37 39.13 -19C39.69 -19.62 40.44 -19.93 41.37 -19.93C42.32 -19.93 43.08 -19.62 43.64 -19C44.21 -18.37 44.49 -17.55 44.49 -16.53L44.49 -7.16C44.49 -6.17 44.21 -5.36 43.64 -4.74Z M56 -0.68C57.18 -0.05 58.54 0.27 60.08 0.27C61.61 0.27 62.97 -0.05 64.15 -0.68C65.33 -1.31 66.24 -2.2 66.88 -3.34C67.53 -4.49 67.85 -5.81 67.85 -7.3L67.85 -23.36C67.85 -23.47 67.81 -23.57 67.73 -23.65C67.65 -23.73 67.56 -23.77 67.44 -23.77L63.47 -23.77C63.36 -23.77 63.26 -23.73 63.18 -23.65C63.1 -23.57 63.06 -23.47 63.06 -23.36L63.06 -7.06C63.06 -6.09 62.79 -5.31 62.25 -4.72C61.71 -4.13 60.98 -3.84 60.08 -3.84C59.17 -3.84 58.45 -4.13 57.9 -4.72C57.36 -5.31 57.09 -6.09 57.09 -7.06L57.09 -23.36C57.09 -23.47 57.05 -23.57 56.97 -23.65C56.89 -23.73 56.79 -23.77 56.68 -23.77L52.71 -23.77C52.6 -23.77 52.5 -23.73 52.42 -23.65C52.34 -23.57 52.3 -23.47 52.3 -23.36L52.3 -7.3C52.3 -5.81 52.62 -4.49 53.27 -3.34C53.91 -2.2 54.82 -1.31 56 -0.68Z M86.34 -23.65C86.26 -23.73 86.16 -23.77 86.05 -23.77L70.77 -23.77C70.66 -23.77 70.56 -23.73 70.48 -23.65C70.4 -23.57 70.36 -23.47 70.36 -23.36L70.36 -20.03C70.36 -19.92 70.4 -19.82 70.48 -19.74C70.56 -19.66 70.66 -19.62 70.77 -19.62L75.76 -19.62C75.87 -19.62 75.93 -19.57 75.93 -19.45L75.93 -0.41C75.93 -0.29 75.97 -0.2 76.05 -0.12C76.13 -0.04 76.22 0 76.34 0L80.31 0C80.42 0 80.52 -0.04 80.6 -0.12C80.68 -0.2 80.72 -0.29 80.72 -0.41L80.72 -19.45C80.72 -19.57 80.77 -19.62 80.89 -19.62L86.05 -19.62C86.16 -19.62 86.26 -19.66 86.34 -19.74C86.42 -19.82 86.46 -19.92 86.46 -20.03L86.46 -23.36C86.46 -23.47 86.42 -23.57 86.34 -23.65Z M99.82 -23.65C99.74 -23.57 99.7 -23.47 99.7 -23.36L99.7 -14.19C99.7 -14.08 99.64 -14.02 99.53 -14.02L94.09 -14.02C93.98 -14.02 93.92 -14.08 93.92 -14.19L93.92 -23.36C93.92 -23.47 93.89 -23.57 93.81 -23.65C93.73 -23.73 93.63 -23.77 93.52 -23.77L89.55 -23.77C89.43 -23.77 89.34 -23.73 89.26 -23.65C89.18 -23.57 89.14 -23.47 89.14 -23.36L89.14 -0.41C89.14 -0.29 89.18 -0.2 89.26 -0.12C89.34 -0.04 89.43 0 89.55 0L93.52 0C93.63 0 93.73 -0.04 93.81 -0.12C93.89 -0.2 93.92 -0.29 93.92 -0.41L93.92 -9.71C93.92 -9.82 93.98 -9.88 94.09 -9.88L99.53 -9.88C99.64 -9.88 99.7 -9.82 99.7 -9.71L99.7 -0.41C99.7 -0.29 99.74 -0.2 99.82 -0.12C99.89 -0.04 99.99 0 100.1 0L104.08 0C104.19 0 104.29 -0.04 104.36 -0.12C104.44 -0.2 104.48 -0.29 104.48 -0.41L104.48 -23.36C104.48 -23.47 104.44 -23.57 104.36 -23.65C104.29 -23.73 104.19 -23.77 104.08 -23.77L100.1 -23.77C99.99 -23.77 99.89 -23.73 99.82 -23.65Z M118.03 -0.65C119.21 -0.03 120.56 0.27 122.1 0.27C123.64 0.27 125 -0.03 126.18 -0.63C127.35 -1.23 128.27 -2.08 128.91 -3.19C129.56 -4.3 129.88 -5.58 129.88 -7.03L129.88 -7.3C129.88 -7.46 129.74 -7.54 129.47 -7.54L125.5 -7.71C125.23 -7.71 125.09 -7.58 125.09 -7.33L125.09 -6.89C125.09 -5.96 124.82 -5.22 124.28 -4.67C123.73 -4.11 123.01 -3.84 122.1 -3.84C121.2 -3.84 120.47 -4.11 119.93 -4.67C119.39 -5.22 119.12 -5.96 119.12 -6.89L119.12 -16.84C119.12 -17.77 119.39 -18.51 119.93 -19.08C120.47 -19.65 121.2 -19.93 122.1 -19.93C123.01 -19.93 123.73 -19.65 124.28 -19.08C124.82 -18.51 125.09 -17.77 125.09 -16.84L125.09 -16.4C125.09 -16.15 125.23 -16.02 125.5 -16.02L129.47 -16.19C129.58 -16.19 129.68 -16.24 129.76 -16.33C129.84 -16.42 129.88 -16.52 129.88 -16.64L129.88 -16.81C129.88 -18.25 129.56 -19.52 128.91 -20.61C128.27 -21.69 127.35 -22.54 126.18 -23.14C125 -23.74 123.64 -24.04 122.1 -24.04C120.56 -24.04 119.21 -23.73 118.03 -23.12C116.85 -22.51 115.94 -21.64 115.3 -20.52C114.65 -19.4 114.33 -18.11 114.33 -16.64L114.33 -7.2C114.33 -5.7 114.65 -4.39 115.3 -3.26C115.94 -2.13 116.85 -1.26 118.03 -0.65Z M136.28 -0.65C137.47 -0.01 138.84 0.31 140.4 0.31C141.96 0.31 143.35 -0.01 144.55 -0.65C145.74 -1.28 146.67 -2.17 147.33 -3.33C147.99 -4.48 148.31 -5.83 148.31 -7.37L148.31 -16.4C148.31 -17.91 147.99 -19.25 147.33 -20.4C146.67 -21.56 145.74 -22.45 144.55 -23.09C143.35 -23.72 141.96 -24.04 140.4 -24.04C138.84 -24.04 137.47 -23.72 136.28 -23.09C135.09 -22.45 134.17 -21.56 133.51 -20.4C132.85 -19.25 132.53 -17.91 132.53 -16.4L132.53 -7.37C132.53 -5.83 132.85 -4.48 133.51 -3.33C134.17 -2.17 135.09 -1.28 136.28 -0.65ZM142.68 -4.74C142.11 -4.11 141.35 -3.8 140.4 -3.8C139.48 -3.8 138.73 -4.11 138.16 -4.74C137.6 -5.36 137.31 -6.17 137.31 -7.16L137.31 -16.53C137.31 -17.55 137.6 -18.37 138.16 -19C138.73 -19.62 139.48 -19.93 140.4 -19.93C141.35 -19.93 142.11 -19.62 142.68 -19C143.24 -18.37 143.53 -17.55 143.53 -16.53L143.53 -7.16C143.53 -6.17 143.24 -5.36 142.68 -4.74Z M155.04 -0.68C156.21 -0.05 157.57 0.27 159.11 0.27C160.65 0.27 162.01 -0.05 163.18 -0.68C164.36 -1.31 165.27 -2.2 165.92 -3.34C166.56 -4.49 166.88 -5.81 166.88 -7.3L166.88 -23.36C166.88 -23.47 166.85 -23.57 166.77 -23.65C166.69 -23.73 166.59 -23.77 166.48 -23.77L162.51 -23.77C162.39 -23.77 162.3 -23.73 162.22 -23.65C162.14 -23.57 162.1 -23.47 162.1 -23.36L162.1 -7.06C162.1 -6.09 161.83 -5.31 161.28 -4.72C160.74 -4.13 160.02 -3.84 159.11 -3.84C158.2 -3.84 157.48 -4.13 156.94 -4.72C156.39 -5.31 156.12 -6.09 156.12 -7.06L156.12 -23.36C156.12 -23.47 156.08 -23.57 156 -23.65C155.92 -23.73 155.83 -23.77 155.72 -23.77L151.74 -23.77C151.63 -23.77 151.53 -23.73 151.45 -23.65C151.37 -23.57 151.34 -23.47 151.34 -23.36L151.34 -7.3C151.34 -5.81 151.66 -4.49 152.3 -3.34C152.95 -2.2 153.86 -1.31 155.04 -0.68Z M170.33 -0.12C170.41 -0.04 170.51 0 170.62 0L174.56 0C174.67 0 174.77 -0.04 174.85 -0.12C174.93 -0.2 174.97 -0.29 174.97 -0.41L174.9 -13.89C174.9 -13.98 174.92 -14.03 174.97 -14.04C175.01 -14.05 175.06 -14.02 175.1 -13.95L181.62 -0.31C181.73 -0.1 181.89 0 182.09 0L186.13 0C186.25 0 186.34 -0.04 186.42 -0.12C186.5 -0.2 186.54 -0.29 186.54 -0.41L186.54 -23.36C186.54 -23.47 186.5 -23.57 186.42 -23.65C186.34 -23.73 186.25 -23.77 186.13 -23.77L182.2 -23.77C182.08 -23.77 181.99 -23.73 181.91 -23.65C181.83 -23.57 181.79 -23.47 181.79 -23.36L181.82 -9.98C181.82 -9.89 181.8 -9.84 181.76 -9.83C181.71 -9.82 181.66 -9.85 181.62 -9.91L175.1 -23.46C175.01 -23.66 174.85 -23.77 174.63 -23.77L170.62 -23.77C170.51 -23.77 170.41 -23.73 170.33 -23.65C170.25 -23.57 170.21 -23.47 170.21 -23.36L170.21 -0.41C170.21 -0.29 170.25 -0.2 170.33 -0.12Z M193.4 -0.65C194.58 -0.03 195.94 0.27 197.47 0.27C199.01 0.27 200.37 -0.03 201.55 -0.63C202.73 -1.23 203.64 -2.08 204.28 -3.19C204.93 -4.3 205.25 -5.58 205.25 -7.03L205.25 -7.3C205.25 -7.46 205.11 -7.54 204.84 -7.54L200.87 -7.71C200.6 -7.71 200.46 -7.58 200.46 -7.33L200.46 -6.89C200.46 -5.96 200.19 -5.22 199.65 -4.67C199.1 -4.11 198.38 -3.84 197.47 -3.84C196.57 -3.84 195.84 -4.11 195.3 -4.67C194.76 -5.22 194.49 -5.96 194.49 -6.89L194.49 -16.84C194.49 -17.77 194.76 -18.51 195.3 -19.08C195.84 -19.65 196.57 -19.93 197.47 -19.93C198.38 -19.93 199.1 -19.65 199.65 -19.08C200.19 -18.51 200.46 -17.77 200.46 -16.84L200.46 -16.4C200.46 -16.15 200.6 -16.02 200.87 -16.02L204.84 -16.19C204.95 -16.19 205.05 -16.24 205.13 -16.33C205.21 -16.42 205.25 -16.52 205.25 -16.64L205.25 -16.81C205.25 -18.25 204.93 -19.52 204.28 -20.61C203.64 -21.69 202.73 -22.54 201.55 -23.14C200.37 -23.74 199.01 -24.04 197.47 -24.04C195.94 -24.04 194.58 -23.73 193.4 -23.12C192.22 -22.51 191.31 -21.64 190.67 -20.52C190.02 -19.4 189.7 -18.11 189.7 -16.64L189.7 -7.2C189.7 -5.7 190.02 -4.39 190.67 -3.26C191.31 -2.13 192.22 -1.26 193.4 -0.65Z M208.42 -0.12C208.5 -0.04 208.6 0 208.71 0L212.68 0C212.8 0 212.89 -0.04 212.97 -0.12C213.05 -0.2 213.09 -0.29 213.09 -0.41L213.09 -23.36C213.09 -23.47 213.05 -23.57 212.97 -23.65C212.89 -23.73 212.8 -23.77 212.68 -23.77L208.71 -23.77C208.6 -23.77 208.5 -23.73 208.42 -23.65C208.34 -23.57 208.3 -23.47 208.3 -23.36L208.3 -0.41C208.3 -0.29 208.34 -0.2 208.42 -0.12Z M216.78 -0.12C216.85 -0.04 216.95 0 217.06 0L230.71 0C230.83 0 230.92 -0.04 231 -0.12C231.08 -0.2 231.12 -0.29 231.12 -0.41L231.12 -3.7C231.12 -3.81 231.08 -3.91 231 -3.99C230.92 -4.07 230.83 -4.11 230.71 -4.11L221.61 -4.11C221.5 -4.11 221.44 -4.16 221.44 -4.28L221.44 -23.36C221.44 -23.47 221.4 -23.57 221.32 -23.65C221.25 -23.73 221.15 -23.77 221.04 -23.77L217.06 -23.77C216.95 -23.77 216.85 -23.73 216.78 -23.65C216.7 -23.57 216.66 -23.47 216.66 -23.36L216.66 -0.41C216.66 -0.29 216.7 -0.2 216.78 -0.12Z"></path></g></g></svg>