<?xml version="1.0"?>
<svg xmlns:rdf="http://www.w3.org/1999/02/22-rdf-syntax-ns#" xmlns="http://www.w3.org/2000/svg" xmlns:cc="http://creativecommons.org/ns#" xmlns:xlink="http://www.w3.org/1999/xlink" xmlns:dc="http://purl.org/dc/elements/1.1/" xmlns:svg="http://www.w3.org/2000/svg" id="svg2" viewBox="0 0 800 499" version="1.1">
  <path id="path2987" d="m264.5 481.52c-16.441-3.0404-30.187-8.0537-40.908-14.919-3.2492-2.0807-7.4289-4.03-9.2882-4.3317-2.0569-0.33379-3.8033-1.3758-4.4605-2.6615-0.59404-1.1621-2.5646-3.688-4.3789-5.613-1.8144-1.925-3.7984-5.3935-4.4089-7.7078-1.3249-5.0218-2.2726-5.7738-5.2851-4.1938-7.4098 3.8863-14.826 12.68-16.764 19.877-1.3622 5.0588-6.5491 9.7064-11.506 10.31-2.2 0.26787-5.0004 0.81245-6.2232 1.2102-1.9053 0.61975-2.6862-0.0218-5.4622-4.4875-2.1759-3.5004-4.8115-6.1086-8.0297-7.9466-11.07-6.3226-20.78-19.3-20.789-27.783-0.005-4.8454-2.9078-9.585-6.878-11.23-3.49-1.43-3.98-3.91-1.62-8.04 1.8777-3.2846 1.8777-14.715 0-18-0.78602-1.375-1.4451-3.8928-1.4646-5.595-0.06-4.56-2.7-6.4-9.21-6.4-4.2519 0-5.9324-0.45982-7.3318-2.0061-2.6836-2.9654-1.157-3.5117 4.6092-1.6494 2.8193 0.91053 6.1024 1.6555 7.2958 1.6555s4.8542 0.9742 8.1352 2.1649c6.6862 2.4265 14.157 2.8101 27.867 1.431 7.0586-0.71009 8.7412-0.63587 8.1266 0.35846-1.2346 1.9975-8.7058 4.9989-12.528 5.0329-1.925 0.0171-5.75 1.1379-8.5 2.4907s-5.5625 2.4737-6.25 2.4909-2.15 0.93127-3.25 2.0313c-1.6817 1.6817-2 3.3333-2 10.378 0 6.0953 0.3947 8.7051 1.4488 9.58 0.79686 0.66134 1.9833 2.8539 2.6365 4.8724 3.3843 10.458 8.8732 18.351 22.573 32.46 10.454 10.766 12.507 12.227 15.177 10.798 2.6227-1.4036 10.347-11.774 14.316-19.22 1.7551-3.2928 6.7185-9.9658 11.03-14.829 7.37-8.32 10.81-13.91 10.81-17.57 0-0.87492 1.3393-3.2574 2.9763-5.2943 3.5486-4.4157 5.998-11.903 6.0129-18.38 0.006-2.5857 0.68582-7.2927 1.5108-10.46 0.9207-3.5348 1.5-10.288 1.5-17.487 0-7.1213 0.61735-14.39 1.5717-18.505 1.3041-5.6231 1.4751-11.21 1.0043-32.812-0.31207-14.319-0.82707-30.228-1.1444-35.354l-0.57704-9.3185 4.4235-4.729c5.3118-5.6787 6.448-10.019 4.2642-16.289-0.83218-2.3894-1.5196-5.8055-1.5276-7.5913-0.0193-4.2978 6.6825-16.747 13.673-25.399 3.0748-3.8057 5.2562-7.4016 4.9133-8.0992-0.33922-0.69011-4.0129-5.5297-8.1638-10.755-4.1508-5.225-12.635-16.264-18.853-24.532-11.898-15.819-20.715-24.851-23.47-24.043-2.9771 0.87369-7.7925-2.8523-17.35-13.425-15.381-17.013-22.798-23.65-30.088-26.921-3.5887-1.6102-7.009-3.8321-7.6007-4.9376-0.6-1.094-1.08-4.893-1.08-8.43 0-5.5819 0.61764-7.738 4.6739-16.316 7.3422-15.527 13.024-24.449 18.925-29.719 2.9777-2.6595 5.1621-5.243 4.8543-5.7411-1.3524-2.1882-17.673 7.9848-23.037 14.359-2.14 2.532-13.42 24.656-13.42 26.301 0 0.23283-2.0198 4.66-4.4885 9.8382-4.0945 8.5884-4.8187 9.5225-8.25 10.642-2.0688 0.67473-4.8865 2.1022-6.2615 3.1722s-3.85 2.5166-5.5 3.2148c-7.3964 3.1296-21.106 14.743-29.313 24.831-9.094 11.178-19.323 28.985-19.546 34.026l-0.141 3.19 8 0.51071c5.021 0.32053 9.3033 1.2039 11.5 2.3722 4.81 2.5583 23.904 16.831 27.147 20.292 3.4959 3.731 4.2752 9.2104 2.5066 17.622-1.817 8.66-3.606 10.7-9.367 10.7-2.4239 0-6.6258 0.72571-9.3376 1.6127-5.4106 1.7697-10.958 1.2824-12.967-1.1391-0.94799-1.1423-0.95498-1.7964-0.03109-2.9096 1.4895-1.7948-0.01928-4.9971-3.1418-6.6682-1.8689-1.0002-2.4851-0.75101-4.7271 1.9119-2.3443 2.7844-3.1966 3.0903-9.4001 3.3741-5.496 0.25141-7.0001-0.006-7.7377-1.3241-1.379-2.4641-1.3461-9.5978 0.07692-16.677 1.1787-5.8638 1.1268-6.5122-0.72058-9-2.8492-3.8369-6.8938-5.9837-8.4123-4.4652-1.7154 1.7154-2.7546 9.3303-2.8365 20.784-0.03931 5.5-0.69326 12.335-1.4532 15.19-0.75995 2.8544-1.127 5.4444-0.81574 5.7557 0.31129 0.31129 1.7259-0.78728 3.1436-2.4413s3.7026-3.1191 5.0776-3.2557c2.165-0.21518 2.5 0.15245 2.5 2.7436 0 2.4892-0.64512 3.2959-3.8381 4.7993-2.9544 1.3911-3.6715 2.1988-3.1148 3.5079 1.9808 4.6578-0.34487 8.3865-4.1612 6.6715-1.0373-0.46613-2.7772-0.87524-3.8666-0.90915-2.5974-0.0808-4.9422-4.9081-4.9854-10.263-0.02835-3.5128 0.57074-4.8247 3.6531-8l3.687-3.8-3.514-8.5c-4.3356-10.488-5.6773-12.112-8.0487-9.7402-2.8788 2.8788-4.6042 24.001-3.1236 38.24 0.17157 1.65-0.13806 3.225-0.68806 3.5-1.0618 0.53088-2.3027-7.0321-2.9535-18-0.21212-3.575-0.66664-8.7617-1.0101-11.526-0.55663-4.4805-0.13029-6.1762 3.9279-15.623 5.1584-12.007 8.2231-22.903 9.5219-33.851 0.5759-4.8548 1.7827-9.0872 3.4217-12 6.678-11.868 6.5913-11.604 6.6107-20.21 0.01676-7.4266 0.37295-8.9888 3.4206-15.002 3.6984-7.2978 7.5501-12.838 11.72-16.857 1.4664-1.4134 3.1455-4.35 3.7314-6.5257 0.64575-2.3981 2.6824-5.5208 5.1722-7.9301 2.2589-2.1859 5.0954-5.8991 6.3035-8.2516 4.697-9.142 20.068-24.22 24.695-24.22 0.91317 0 4.973-2.7 9.0218-6s7.7025-6 8.1192-6c0.41672 0 1.6933-1.834 2.8369-4.0756 2.16-4.233 6.56-6.924 11.34-6.924 1.3419 0 4.6215-1.1319 7.2879-2.5153s7.7705-3.0465 11.342-3.6957c3.5718-0.64924 7.6192-1.9754 8.9942-2.947 1.5169-1.0719 6.0391-2.1953 11.5-2.8568 4.95-0.59965 10.919-1.5166 13.264-2.0377 2.34-0.521 7.95-0.947 12.46-0.947 6.9822 0 7.9825 0.20303 6.7356 1.3672-2.33 2.173-14.2 4.633-22.36 4.633-10.135 0-20.581 2.2955-29.712 6.5292-5.5271 2.5627-9.8937 3.7796-16 4.4589-7.9504 0.88449-8.5717 1.132-11.648 4.6397-3.11 3.548-4.31 7.372-2.3 7.372 0.52247 0 5.5804-2.3145 11.24-5.1433 9.9464-4.9716 10.433-5.1051 14.564-4 2.351 0.62879 6.8236 1.1433 9.9392 1.1433s7.1856 0.54997 9.0445 1.2222c2.8652 1.0361 3.7896 0.96666 6.071-0.45594 4.89-3.05 20.13-10.766 21.26-10.766 0.61174 0 2.2545 0.89847 3.6505 1.9966s4.1909 2.4416 6.2108 2.9855 5.4486 2.5061 7.6195 4.3605c8.2128 7.0157 13.684 8.6848 23.457 7.1565 5.874-0.91848 11.733 0.71282 16.605 4.6234 2.1365 1.7149 5.6925 3.903 7.9021 4.8625 3.8813 1.6854 10.09 8.2784 18.473 19.617 2.4263 3.2815 5.056 5.4135 8.6235 6.9912 2.823 1.2485 6.0419 3.4258 7.1531 4.8385 4.8552 6.1723 6.6064 0.93343 6.011-17.982l-0.45848-14.564 2.7314-1.4124c2.5077-1.2968 2.7735-1.2512 3.2464 0.55704 0.37 1.437 1.37 1.971 3.67 1.971 1.7376 0 4.0721 0.48847 5.1876 1.0855l2.0283 1.0855-2.0276 2.1645c-1.1152 1.1905-2.7074 3.4784-3.5384 5.0842-1.6723 3.2318-0.83728 5.9927 2.5366 8.387 1.0127 0.71869 1.8413 1.7201 1.8413 2.2253 0 0.50522-2.9454 3.9373-6.5453 7.6269-13.233 13.563-20.069 26.87-28.49 55.462-6.8178 23.147-10.577 30.202-18.318 34.37-6.6108 3.5601-5.1454 7.7137 4.4258 12.545 3.2603 1.6458 5.9279 3.6388 5.9279 4.4288 0 3.7484-2.489 12.622-5.0586 18.035-1.5666 3.3-6.2447 9.825-10.396 14.5-9.5929 10.804-11.55 14.719-11.531 23.066 0.0219 9.5373 1.0806 10.938 10.457 13.83l7.9388 2.4494 8.7345-1.7656 8.7345-1.7656 6.564 2.626c5.2161 2.0868 6.9838 2.4014 8.6082 1.532 2.7359-1.4642 3.9485-4.9894 3.9485-11.479 0-10.17 4.8867-7.7744 5.7365 2.8122 0.28793 3.587 0.22793 7.6994-0.13333 9.1388-1.328 5.2913-10.439 8.1568-17.288 5.4371-5.9982-2.382-9.8726-2.8235-15.419-1.757-4.8006 0.92314-6.8425 0.76727-14.246-1.0874-12.479-3.1262-14.35-2.7326-18.835 3.9623-9.6376 14.386-8.5678 27.947 3.3165 42.041 2.1275 2.5231 3.8681 5.0326 3.8681 5.5769 0 0.54421-1.5451 2.487-3.4335 4.3174-8.1599 7.9089-10.405 20.537-8.6346 48.564 1.3547 21.445 1.7553 19.132-6.669 38.511-12.288 28.266-13.07 36.493-4.6325 48.743 9.0439 13.131 29.938 23.514 55.87 27.763 13.254 2.1718 14.505 2.0624 14.478-1.2672-0.0353-4.4214-3.7241-11.385-8.7375-16.495l-4.6555-4.745-0.17994-15.005c-0.09-8.24 0.06-14.99 0.35-14.99 0.28907 0 2.4996 1.8196 4.9124 4.0436 4.5637 4.2067 6.3369 4.3833 6.3369 0.6312 0-1.2139 1.6261-8.4999 3.6136-16.191 3.3384-12.919 3.624-15.164 3.75-29.484 0.1351-15.356 0.11551-15.503-2.1119-15.819-1.2366-0.17563-3.556 0.61187-5.1544 1.75-3.9035 2.7796-4.3677 2.6276-3.6076-1.1807 2.1934-10.99 3.6275-13.992 9.243-19.344l5.6032-5.341-1.168-3.8983c-1.38-4.6-1.54-10.17-0.29-10.17 0.48374 0 2.5558 2.0457 4.6046 4.5459 2.3163 2.8268 4.82 4.7649 6.6205 5.125 2.6302 0.52605 2.8963 0.95694 2.9052 4.7041 0.0205 8.6737 7.4447 19.355 19.745 28.407 9.7186 7.1522 23.155 14.711 24.222 13.627 1.5145-1.5379 5.8013-15.788 6.5485-21.769 0.53749-4.302 0.17533-7.8785-1.5088-14.9-3.7174-15.499-3.0755-14.271-7.2663-13.91-2.0377 0.17556-4.6153 0.0303-5.7278-0.32283-2.8527-0.9054-2.5975-5.0209 0.47713-7.6942 3.1266-2.7185 3.1155-3.3173-0.13994-7.5854-2.4676-3.2352-2.9198-3.4228-6.9278-2.8734l-4.2879 0.58772-3.1844-8.9021c-1.7514-4.8961-4.2589-9.9115-5.5722-11.145-3.6745-3.452-2.9738-4.7233 3.6122-6.5544 6.6095-1.8376 6.8691-2.3443 4.5288-8.8402-0.79258-2.2-1.4608-6.5943-1.485-9.7651-0.0422-5.5415 0.18021-6.0472 5.7321-13.034 3.1768-3.9977 7.6768-10.922 10-15.388 3.5632-6.8489 5.0856-8.6911 9.7311-11.775 3.0289-2.0105 7.9789-4.7485 11-6.0846 4.7518-2.1015 5.4916-2.8019 5.4831-5.1918-0.0162-4.5746-4.4868-12.951-7.8368-14.683-5.7145-2.9551-13.905-2.5011-18.067 1.0014-2.813 2.367-3.3645 2.4826-6.6575 1.3958-2.062-0.68053-5.791-3.5173-8.7597-6.664-6.9696-7.3873-7.4834-7.596-14.319-5.8155-3.17 0.82-7.93 1.5-10.56 1.5-5.7022 0-5.8562 0.64495-1.7899 7.5 1.6312 2.75 2.9736 5.3375 2.983 5.75 0.0641 2.8187-12.839-3.4659-18.597-9.0577-4.4505-4.3223-7.638-11.176-7.206-15.494 0.2894-2.893 0.0529-3.2075-2.4817-3.2994-3.5789-0.12982-4.6428-1.2444-5.7523-6.0261-1.8514-7.9796-1.8271-8.0107 6.8039-8.7354 9.4903-0.79681 13.424-1.8364 23.943-6.3274l8.1932-3.498 3.3607 2.5633c4.9902 3.8062 9.376 5.3454 18.786 6.5928 4.6571 0.61738 9.9686 1.5999 11.803 2.1833 4.4481 1.4145 9.824 6.2619 12.277 11.07 1.0971 2.1506 2.5331 3.748 3.1911 3.5498 0.65797-0.19818 2.2374-2.438 3.51-4.9774 2.2016-4.3934 2.3096-5.605 2.2304-25.013l-0.0833-20.396 10.253-9.384c12.748-11.667 18.12-17.913 21.495-24.987 4.8836-10.237 2.9657-21.903-4.6547-28.315-3.788-3.1874-12.613-5.1072-20.281-4.4118-3.2839 0.29777-6.032 0.10212-6.3757-0.45393-1.1793-1.9082 8.871-10.089 17.02-13.854 8.3282-3.8476 15.918-5.9599 30.479-8.4826 4.6175-0.8 8.6408-1.6998 8.9405-1.9995 0.29972-0.29972-0.23133-1.3217-1.1801-2.2711-2.8049-2.8067-16.584-2.7892-32.209 0.04099-7.179 1.3004-13.591 2.1848-14.25 1.9652-2.0501-0.68337-1.3185-3.7422 1.5527-6.4917 6.3046-6.0375 21.102-9.8341 40.25-10.327 6.875-0.17697 12.64-0.67996 12.811-1.1178 0.1711-0.4378-1.4039-1.696-3.5-2.796-3.493-1.8331-6.1476-2.0296-31.811-2.3543-42.968-0.54378-45.484-0.46195-54.956 1.7875-10.781 2.5605-20.624 7.0851-31.333 14.403-4.56 3.108-8.47 5.657-8.7 5.657-0.22514 0 0.0504-1.3187 0.61223-2.9305 0.67615-1.9396 3.1438-4.3132 7.2978-7.0196 20.412-13.299 41.557-18.752 61.671-15.904 5.2635 0.74531 13.368 1.1164 18.405 0.84272 19.919-1.0824 50.858-0.40931 62.5 1.3596 28.889 4.3895 58.768 14.338 77.289 25.734l5.0038 3.0788 11.604-2.3308c10.157-2.0402 14.471-2.3293 34.604-2.3188 17.508 0.0091 25.586 0.44466 33.827 1.8238 52.91 8.854 99.21 31.434 124.39 60.664 28.01 32.519 40.914 76.012 41.39 139.5 0.21929 29.292-5.4797 46.713-27.642 84.5-22.169 37.799-27.844 52.87-33.135 88l-0.82834 5.5-12 0.67462c-34.294 1.9279-71.057 6.0596-92.396 10.384-38.96 7.8954-73.891 20.337-100.1 35.655-5.225 3.0533-9.8 5.376-10.167 5.1615-0.36665-0.21453-3.9129-6.5742-7.8806-14.133-10.406-19.824-15.07-26.606-25.331-36.841-18.202-18.155-33.538-21.848-55.337-13.326-22.25 8.6983-42.303 22.959-66.901 47.578-12.214 12.225-15.185 14.656-21.793 17.834-10.536 5.0677-23.067 7.5047-38.091 7.4082-6.6-0.0424-15.15-0.65964-19-1.3716zm360.46-53.06c15.43-2.56 18.04-3.45 18.04-6.11 0-4.4275 6.9355-18.39 14.971-30.139 4.9083-7.1768 10.468-16.122 12.354-19.877 3.8605-7.6856 7.3503-17.986 6.4118-18.925-1.4585-1.4585-24.8 14.822-37.115 25.888-6.0477 5.4342-8.1222 8.1424-11.573 15.108-3.0457 6.1483-6.5359 11.017-12.666 17.668-9.12 9.9-11.38 13.36-11.38 17.46 0 2.3373 0.30519 2.5669 2.75 2.0686 1.5125-0.30829 9.709-1.7191 18.215-3.135zm-211.75-40.5c6.7588-3.8742 23.089-12.482 36.289-19.128 13.2-6.6464 26.25-13.691 29-15.654 2.75-1.9632 7.475-4.5578 10.5-5.7657 5.2078-2.0796 5.7219-2.6136 9.6767-10.052 4.9338-9.28 10.895-26.344 12.234-35.022 1.1122-7.2079 2.4947-10.085 8.0193-16.687 2.2335-2.6692 3.8114-5.2567 3.5066-5.75-0.31-0.5-2.17-0.9-4.13-0.9-4.0009 0-8.2408 3.7734-16.054 14.288-2.3346 3.1417-4.6971 5.7122-5.25 5.7122-1.5248 0-1.2018-9.9751 0.50951-15.738 1.9988-6.7308 8.071-14.695 15.484-20.307 3.3015-2.4999 12.19-7.872 19.752-11.938 26.664-14.337 30.98-17.874 33.88-27.771 0.93985-3.2069 1.7248-9.5012 1.7766-14.246 0.085-7.7868-0.0758-8.5242-1.9162-8.788-1.5071-0.21603-2.5063 0.77112-4 3.9518-2.5947 5.5251-6.2869 8.1334-11.674 8.2464l-4.2764 0.0898-1.6949-8c-1.5403-7.2701-2.0963-8.365-6.0937-12-2.4194-2.2-6.8473-5.2375-9.8399-6.75-4.8571-2.4548-6.5128-2.7494-15.427-2.7444-5.4921 0.003-11.614 0.45777-13.603 1.0104-4.7403 1.3167-9.6778 4.7962-11.734 8.2688-2.1566 3.6426-1.1153 4.2767 8.1873 4.9851 4.53 0.345 9.9215 1.6437 14.664 3.5324 8.3369 3.32 8.7112 3.2604 14.96-2.3848 2.0805-1.8796 4.708-3.4175 5.839-3.4175 4.5873 0 9.2908 10.999 5.7962 13.554-0.92829 0.67878-2.5209 1.0163-3.5391 0.75002-3.3838-0.8849-6.0558 1.437-6.0558 5.2622 0 1.9229-0.5625 3.6849-1.25 3.9154-0.6875 0.23059-3.2156 0.92311-5.618 1.5389-2.8148 0.72156-6.0954 2.7354-9.2258 5.6636l-4.8578 4.5439-7.1445-0.4037c-6.029-0.34067-7.4432-0.7725-9.0571-2.7656-1.0519-1.299-1.7494-2.8563-1.55-3.4605 0.19939-0.60424 3.2517-1.3547 6.7829-1.6678 6.7632-0.59953 9.9106-1.8127 13.765-5.3058 2.7768-2.5163 5.4502-7.3384 4.7218-8.5169-0.28318-0.4582-5.7586-1.156-12.168-1.5507-6.409-0.39468-12.213-0.93245-12.897-1.195-1.9602-0.75218-4.4112 2.3908-5.6256 7.2138-1.1628 4.6179-2.7242 5.5171-4.9412 2.8458-0.7203-0.8679-3.4916-2.6837-6.1585-4.0351-4.2166-2.1367-8.7612-7.1558-8.773-9.6889-0.002-0.44111 1.3463-1.2726 2.9963-1.8478 5.8051-2.0237 2.9638-7.1791-3.6671-6.6538-3.2614 0.25836-3.8329 0.007-3.8329-1.6862 0-5.3615 23.105-14.082 41.373-15.615 13.864-1.1636 21.939-2.2837 24.525-3.4021 1.6572-0.71649 1.8314-0.47278 1.3736 1.922-0.37771 1.9758-0.0696 2.8807 1.1021 3.2367 4.09 1.2428 8.8716 3.7703 12.361 6.5342 4.3313 3.4304 6.204 3.2082 7.2055-0.85523 0.94242-3.8237 8.5824-15.881 13.261-20.929 5.4355-5.864 8.8942-7.2853 20.513-8.4292 19.571-1.9268 20.822-2.5411 23.838-11.703 4.7283-14.362 14.659-29.731 24.845-38.45 8.71-7.462 31.25-12.776 69.34-16.346 3.71-0.348 6.75-1.059 6.75-1.579 0-2.782-30.76-18.924-48.43-25.417-39.34-14.449-84.89-18.887-118.5-11.544-47.92 10.469-79.99 42.176-91.11 90.066-1.2133 5.225-2.598 11.116-3.0771 13.09-0.65599 2.7038-2.3925 4.8024-7.0336 8.5-6.58 5.24-11.85 12.37-11.85 16.04 0 1.2756-1.5435 3.6975-3.5826 5.6213-2.6267 2.4781-3.6273 4.296-3.75 6.813l-0.17 3.44 5.5889-0.33193c3.0739-0.18257 7.4285 0.16343 9.677 0.76888 7.3818 1.9877 11.777 10.377 7.617 14.537-0.88945 0.88945-6.1179 5.262-11.619 9.7168-20.52 16.62-28.76 25.9-28.76 32.4 0 2.8872 0.94435 3.983 8.5518 9.9233 4.7035 3.6727 8.3918 7.1575 8.1964 7.7439-0.19547 0.58639-2.4668 1.6818-5.0474 2.4343-10.575 3.0836-15.896 14.194-10.397 21.711 1.2136 1.6593 1.8106 1.7547 4.6927 0.75 4.6253-1.6124 15.501-1.4331 22.422 0.3696 3.2112 0.83641 10.418 3.3114 16.016 5.5 14.158 5.5355 13.989 5.5746 13.264-3.078-0.92436-11.026 0.29897-12.105 7.8414-6.9153 5.943 4.0889 9.2792 8.7172 11.555 16.031 1.859 5.973 2.649 17.445 1.1547 16.769-0.4125-0.1868-5.025-2.4547-10.25-5.0398-14.765-7.3052-26.53-10.072-43.332-10.19l-13.832-0.0973-2.4182 2.8058c-2.7517 3.1927-3.163 7.8312-0.86363 9.7396 5.9709 4.9554 3.4792 9.4122-10.318 18.455-13.164 8.6275-15.888 12.15-17.134 22.156-0.49024 3.9357-0.53108 10.438-0.0908 14.449 0.72363 6.5921 1.1221 7.5644 4.1446 10.113 4.4545 3.7557 14.949 11.782 15.404 11.782 0.1992 0 5.8921-3.1698 12.651-7.044zm4.52-56.71c0.42298-1.5125 0.7327-5.1125 0.68826-8l-0.0808-5.25 9.3308-0.15c5.1319-0.0825 9.8933-0.195 10.581-0.25 1.5753-0.12602 1.2022 7.6856-0.54044 11.317-1.0379 2.1627-2.2738 2.6914-8.7096 3.7256-11.79 1.8948-12.175 1.8473-11.269-1.3924zm23.52-41.83c-4.1096-1.7972-4.335-5.3545-0.68009-10.733 2.4814-3.6518 2.7482-3.7716 7.75-3.4821 4.5059 0.26081 5.2218 0.59335 5.5004 2.5552 0.26082 1.8368-0.5076 2.6103-4.1398 4.1672-5.6057 2.4029-6.1215 3.2628-3.6597 6.1013 1.0886 1.2552 1.9792 2.4382 1.9792 2.6291 0 0.77494-3.699 0.0968-6.75-1.2374zm-14.64-16c-0.34-0.87-0.61-2.7-0.61-4.07 0-2.8967-1.4401-5.9627-4.2515-9.0516-4.8973-5.3807 2.0516-6.7227 19.751-3.8145 12.798 2.1027 16.177 1.9848 17.568-0.61284 0.81854-1.5295 0.83901-2.7828 0.0729-4.4643-0.65421-1.4358-0.70188-2.5623-0.12355-2.9198 1.6086-0.99418 4.928 1.4434 5.5974 4.1103 0.78746 3.1375-0.24971 11.256-1.6542 12.948-0.7206 0.86827-4.307 1.2229-11.749 1.1618-12.397-0.10185-17.295 1.1944-20.263 5.3622-2.3522 3.3034-3.459 3.6466-4.3417 1.3462zm209.14 48.589c2.8062-1.2339 8.0339-5.2824 12.755-9.8781 9.3573-9.1085 10.858-10.108 19.5-12.984 22.24-7.4017 37.856-26.716 39.684-49.083 0.62483-7.6434-1.4711-20.918-4.6119-29.209-5.742-15.158-18.906-22.271-34.14-18.447-16.279 4.0867-29.298 13.806-35.203 26.279-2.6989 5.7021-3.226 7.9853-3.2279 13.981-0.002 5.8654 0.4062 7.7186 2.2478 10.21 2.8354 3.8352 2.8157 4.2471-0.34501 7.2-5.2833 4.9357-6.7386 10.575-3.8084 14.759 2.5926 3.7015 5.5193 2.4534 8.4789-3.6158 1.4165-2.9048 4.0943-6.5494 5.9506-8.0992l3.3752-2.8177-1.6856-5.219c-2.3157-7.17-1.0875-9.6831 9.6342-19.714 15.003-14.037 24.942-17.563 32.012-11.355 3.2459 2.8499 7.3363 10.623 6.1922 11.767-0.29135 0.29136-2.3734-1.5648-4.6268-4.1248-3.14-3.56-4.79-4.65-7.06-4.65-3.47 0-7.87 3.9-7.87 6.96 0 1.1298 2.5272 4.8031 5.6159 8.1629 5.2058 5.6626 5.5784 6.3888 5.1014 9.9445-0.74845 5.5801-4.1638 9.7098-10.26 12.406-5.4155 2.395-8.4577 6.1556-8.4577 10.455 0 1.945 1.02 2.4664 6.4171 3.2798 3.4257 0.51629 2.7854 2.5535-1.7925 5.7032-4.9389 3.398-8.7363 3.8505-16.003 1.9069-4.1599-1.1126-4.5863-1.0283-7.5911 1.5-3.4306 2.8867-6.0267 3.2068-12.991 1.602-9.7718-2.2518-16.899 1.9579-22.42 13.243-4.8924 9.9997-4.3386 18.55 1.4004 21.621 3.6191 1.937 17.668 0.88246 23.725-1.7808zm-287.16-34.51c1.8036-1.3756 6.5128-6.5506 10.465-11.5 3.9522-4.9493 7.5264-8.9988 7.9427-8.9988 0.41632 0 1.3218 0.68055 2.0121 1.5123 0.95467 1.1503 1.5824 1.2407 2.6224 0.37756 0.75203-0.62413 1.3673-1.7435 1.3673-2.4876 0-0.74404 2.9905-5.7514 6.6455-11.128 3.655-5.3761 7.9296-12.475 9.4992-15.775 2.9045-6.1066 3.7442-12.833 1.7555-14.062-2.1621-1.3362-6.127 3.075-8.3958 9.3408-3.2061 8.8544-6.3588 13.163-14.536 19.867-8.427 6.9078-14.727 14.934-20.082 25.582-5.2962 10.532-5.1775 11.757 0.7045 7.271zm-261.03-71.92c1.4971-2.0474 0.89334-4.7182-1.6946-7.4961-2.6546-2.8493-3.6118-2.6354-5.1991 1.1619-0.74718 1.7875-2.1032 3.8676-3.0134 4.6224-0.91 0.76-1.655 2.05-1.655 2.88 0 2.1527 9.8627 1.1585 11.562-1.1655zm349.04-7.3495c0.60516-0.40408 1.6496-1.7774 2.3211-3.0518 1.0053-1.908 0.93228-2.7574-0.41343-4.8112-0.90474-1.3808-2.378-2.3509-3.3004-2.1732-2.4516 0.47213-3.8191 5.1639-2.4078 8.2612 1.2082 2.6516 1.9611 3.0032 3.8006 1.775zm-364.91-10.19c5.0907-0.0271 8.4623-0.48258 8.9079-1.2035 0.853-1.38-6.096-7.72-12.599-11.5-2.475-1.4375-6.75-4.0543-9.5-5.815s-5.5625-3.0117-6.25-2.7799c-1.3841 0.46661-1.8117 18.868-0.48469 20.855 1.1653 1.7448 3.3774 2.1087 7.7089 1.2682 2.2142-0.42965 7.7118-0.80078 12.217-0.82473zm273.84-0.14c3.8324-1.4339 5.9638-2.8884 6.7451-4.6033 1.053-2.3111 0.74121-2.8895-3.991-7.4037-3.69-3.51-5.93-4.89-7.99-4.89-1.571 0-5.2359-0.61723-8.1442-1.3716-4.9432-1.2823-5.7881-1.2118-12.968 1.0812-6.0044 1.9176-9.3121 2.3806-15.159 2.1216-8.397-0.37183-9.7633 0.79572-6.151 5.2562 1.846 2.2794 2.5526 2.4136 12.792 2.4295l10.838 0.0168 8.5 4.6445c4.675 2.5544 8.8206 4.6844 9.2125 4.7332 0.39187 0.0488 3.2338-0.85463 6.3153-2.0076zm-106.53-40.65c-0.002-0.9625-0.91825-3.25-2.036-5.0834-3.97-6.52-25.57-32.17-27.08-32.17-2.4891 0-1.2606 1.9202 13.122 20.51 1.375 1.7772 5.0907 6.6645 8.2572 10.861 5.7695 7.6457 7.7461 9.1473 7.7391 5.8793zm29.489-44.226c0.33182-0.53689 0.83765-3.1244 1.1241-5.75 0.55995-5.1332-2.0699-11.774-4.6627-11.774-1.3504 0-3.8924 8.0399-3.9274 12.421-0.0342 4.2903 5.5917 8.1352 7.466 5.1026zm-97.06-22.628c1.1034-0.76354 2.9845-1.0745 4.3804-0.72417 4.0392 1.0138 2.1229-1.8786-2.8882-4.3592-2.4343-1.205-4.9563-2.2175-5.6045-2.25-1.89-0.095-4.32 2.893-4.32 5.312 0 4.553 3.5467 5.4029 8.4338 2.021zm6.57-16.731c0-1.8791-4.704-3.9485-5.6171-2.4711-0.74 1.209 2.2 3.81 4.31 3.81 0.72 0 1.31-0.603 1.31-1.339zm19.25-1.8275c3.2664 0.23603 3.3384-0.29455 0.83276-6.14-2.4655-5.7518-3.6839-6.4183-6.9326-3.7924-1.4576 1.1782-3.9106 2.6345-5.4512 3.2363-3.5829 1.3996-3.1872 3.6173 1.1695 6.5533 2.7813 1.8743 3.7201 2.0627 5.4931 1.1023 1.1762-0.63708 3.376-1.0689 4.8885-0.95961zm43.75 0.231c0-3.4515-1.8593-6.9571-6.1705-11.634-6.32-6.86-13.73-9.75-15.19-5.931-0.7524 1.9607-4.0427 1.9226-5.6931-0.06594-2.94-3.539-9.95-5.73-9.95-3.108 0 0.729-1.12 2.382-2.5 3.674s-2.5 3.145-2.5 4.118c0 2.662 3.93 4.882 8.64 4.882 2.307 0 6.3271 0.9141 8.9335 2.0313s5.2265 1.8688 5.8225 1.6701c0.59745-0.19915 0.94173-2.0078 0.76739-4.0313-0.47-5.456 1.51-4.698 8.7 3.33 6.32 7.059 9.14 8.622 9.14 5.065zm5.0298-5.0094c-1.12-2.096-3.03-3.635-3.03-2.444 0 0.772 3.04 4.388 3.69 4.388 0.20911 0-0.0881-0.87494-0.66036-1.9443zm-156.03 307.94c-0.83005-1.551-0.76049-2 0.30983-2 0.75911 0 2.1947 0.9 3.1902 2 1.7559 1.9402 1.7466 2-0.30983 2-1.166 0-2.601-0.9-3.19-2zm-9.8299-11.961c-4.4632-7.3391-11.606-9.5756-20.705-6.4828-2.9727 1.0105-5.7034 1.5387-6.0682 1.174-0.36479-0.36479 0.69782-2.2134 2.3613-4.1081 2.3516-2.6784 3.1804-4.7872 3.7248-9.4778 0.90168-7.7689 0.0097-11.612-3.2994-14.215-2.1209-1.6683-3.4785-1.9647-6.6732-1.4568-2.2058 0.35066-6.8748 0.87834-10.376 1.1726-7.448 0.62611-7.5774-0.67382-0.30756-3.0885 5.0665-1.6828 10.274-6.3918 14.017-12.675 2.9368-4.9299 2.7245-7.0927-1.2515-12.749-1.8737-2.6658-4.325-6.6468-5.4473-8.8466-1.8286-3.5844-2.5221-4.0657-6.6784-4.6354-2.5508-0.34963-5.9296-1.5555-7.5085-2.6798-1.5788-1.1242-4.128-2.4888-5.6648-3.0325-2.4178-0.85524-3.2373-2.2986-6.0829-10.713-5.545-16.41-7.57-26.23-5.403-26.23 1.1996 0 6.868 12.624 8.7424 19.47 1.7616 6.434 4.7542 12.973 7.2223 15.78 1.0945 1.245 3.0388 1.75 6.7375 1.75 5.2452 0 9.3937 2.3508 10.711 6.0692 0.27869 0.78697 0.83299 1.1287 1.2318 0.75936 0.39879-0.36933-0.43961-2.6589-1.8631-5.0879s-2.5907-5.0518-2.5937-5.8285c-0.01706-4.3196-2.2825-9.0098-5.041-10.436-3.435-1.78-3.895-4.91-0.954-6.48 1.1-0.5887 2-1.7295 2-2.5352 0-1.9125-3.4034-1.8886-5 0.0352-1.9072 2.298-4 1.8122-4-0.92857 0-2.9 2.413-5.57 5.036-5.57 1.0414 0 2.3751-0.9 2.9638-2 2.8401-5.3067 7.9206 1.0244 10.432 13 0.98044 4.675 2.3757 9.85 3.1006 11.5 0.72492 1.65 1.6315 4.575 2.0146 6.5 0.38314 1.925 1.5575 5.2005 2.6096 7.2788s2.0933 5.9033 2.3136 8.5c1.0831 12.765 2.4334 22.967 3.3382 25.221 0.55188 1.375 1.9535 5.5707 3.1146 9.3238 2.8181 9.1085 5.4252 14.019 8.5189 16.046 1.534 1.01 2.556 2.61 2.556 4.01 0 1.2849 1.35 4.866 3 7.9581 3.3191 6.2199 3.4502 6.6597 1.9853 6.6597-0.55808 0-1.8249-1.3323-2.8152-2.9607zm17.41-24.16c-3.2-2.51-3.251-6.46-0.08-6.24 6.454 0.46742 19.15 2.7084 20 3.5303 0.65953 0.63767 0.19622 1.6236-1.3608 2.8959-3.4945 2.8554-14.837 2.7415-18.559-0.18637zm43.42-12.57c-2.5108-1.0937-8.3047-1.653-20.5-1.9787-9.35-0.24976-20.705-0.7158-25.234-1.0356-6.4927-0.45852-9.2075-0.2099-12.835 1.1754-2.5579 0.97687-4.9611 1.3728-5.4127 0.89182-0.44671-0.47581-1.11-2.7005-1.4741-4.9438-0.81099-4.9976 0.1674-5.9508 6.956-6.7768 2.75-0.33462 6.47-0.89371 8.2667-1.2424 2.2567-0.43802 4.7874 0.0201 8.1854 1.4819 3.1561 1.3577 7.0275 2.116 10.804 2.116 3.2368 0 10.097 0.9 15.244 2 5.1474 1.1 10.896 2 12.775 2 5.8159 0 12.242 5.1034 9.0087 7.1547-1.5854 1.006-1.5178 1.0158-5.7839-0.8425zm137.31-4.2625c-1.7524-1.0685-3.6775-2.8608-4.278-3.9827-0.72591-1.3564-1.9529-1.9687-3.6613-1.8273-1.7957 0.14862-3.1676-0.60834-4.5555-2.5135-1.6662-2.2873-2.7371-2.7297-6.6525-2.7481-2.5666-0.0121-6.5689-0.88553-8.894-1.941-2.4349-1.1053-4.474-1.52-4.809-0.97804-1.4318 2.3168-4.4978 0.73875-7.0603-3.6338-4.1461-7.0748-4.8637-25.712-0.86208-22.391 0.80234 0.66589 1.4588 1.62 1.4588 2.1204 0 0.50032 0.67504 2.5253 1.5001 4.4999 1.2607 3.0172 1.7387 3.3922 2.995 2.3496 1.2046-0.99968 1.9806-0.92242 3.9955 0.3978 1.4852 0.97315 3.4532 1.3994 4.8467 1.0496 2.8568-0.71702 8.5579 3.46 11.589 8.4907 0.58988 0.97916 2.3193 1.3671 5.3867 1.2083 2.4848-0.12863 4.8043 0.22949 5.1543 0.79582 0.35001 0.56632 1.3079 3.6226 2.1287 6.7917s2.5976 7.4399 3.9484 9.4906c3.624 5.5016 3.1498 6.1016-2.2301 2.8212zm26.317-29.031c-3.0566-4.6189-6.8215-6.0611-9.4984-3.6386-1.6564 1.499-1.941 1.4529-3.8995-0.63188-2.2765-2.4232-3.6296-7.5132-4.6961-17.666l-0.67419-6.4175 2.3186 1.5219c1.2752 0.83707 4.3016 3.95 6.7252 6.9175 2.4236 2.9676 5.3486 5.5512 6.5 5.7414 4.0185 0.66381 4.6202 1.9224 7.1252 14.904 0.84777 4.3934-0.70162 4.1028-3.9008-0.73142zm-213.34-1.66c-6.048-7.88-8.787-9.01-14.293-5.86-5.517 3.15-5.926 1.92-3.415-10.29 1.42-6.91 3.493-11.21 5.404-11.21 0.37334 0 2.3575 2.4375 4.4093 5.4166 2.3275 3.3795 5.1167 6.0531 7.4162 7.1091 2.0271 0.93086 4.9923 2.3184 6.5893 3.0834 3.8872 1.8621 5.3148 1.7576 8.3235-0.60906 3.286-2.5848 9.1947-2.5907 14.245-0.0143 4.7551 2.4259 5.5882 3.6344 3.9042 5.6635-1.0232 1.2328-2.4833 1.4273-6.9353 0.9236-6.9237-0.78332-10.37 0.42282-12.395 4.3377-1.0634 2.0565-2.7253 3.3229-5.2979 4.0374-5.0947 1.4149-4.8151 1.5059-7.9558-2.5884zm-58.477-15.86c-0.62755-1.3773-0.82132-2.8239-0.4306-3.2146 1.1412-1.1412 4.0858 1.2304 4.434 3.571 0.45445 3.0546-2.572 2.7852-4.0034-0.35636zm53.184-32.92c0-4.2482 2.0213-13.646 3.2964-15.326 1.2484-1.6453 3.3575-1.5942 4.0065 0.0971 0.61326 1.5981-1.849 13.936-3.3355 16.714-1.727 3.23-3.967 2.39-3.967-1.48zm51.64-22.554c-5.3076-4.8924-7.7256-9.5741-7.6082-14.731 0.0475-2.0853-0.21146-5.2209-0.57549-6.968-0.62346-2.9921-0.3099-3.4356 5.4023-7.6406 3.3353-2.4553 9.4136-5.8586 13.507-7.5628 7.2682-3.0257 7.5455-3.0624 11.789-1.5578 2.3899 0.84745 6.1116 1.4164 8.2703 1.2643 2.4248-0.17082 4.0811 0.1917 4.3333 0.94846 0.2477 0.74309-0.54974 1.225-2.0271 1.225-4.1587 0-9.0875 4.1086-10.592 8.8292-0.74816 2.3481-2.4357 4.9739-3.75 5.8351-3.1526 2.0656-3.0231 3.9108 0.3603 5.1355 1.5125 0.54748 8.6 3.0846 15.75 5.638 14.503 5.1792 20.5 8.566 20.5 11.576 0 3.5671-7.7713 1.9191-13.922-2.9525-2.13-1.69-4.39-3.07-5.03-3.07-0.64061 0-2.8258 1.3217-4.8561 2.9371-6.3006 5.0133-8.2556 4.9328-13.071-0.5381-4.5872-5.2114-5.2916-5.1048-7.4384 1.1251-1.9763 5.7351-5.2022 5.8807-11.042 0.49822zm179.61-151.69c-2.0588-0.83072-1.4572-12.029 1.0354-19.276 2.2192-6.4519 4.9625-9.4581 4.4678-4.896-0.23403 2.158 0.0708 2.3138 4.0341 2.0621l4.2872-0.27233-1.5979 3.09c-2.1086 4.0777-1.5915 7.3672 1.2211 7.7673 1.6934 0.24095 2.6576-0.58885 4.2022-3.6165 2.893-5.6706 6.7173-9.8909 11.456-12.641 3.94-2.289 11.64-4.415 11.64-3.215 0 0.31002-2.1592 2.7229-4.7983 5.3619-3.7447 3.7447-5.1719 6.1299-6.5 10.863-0.93 3.336-1.7 7.303-1.7 8.815 0 6.2333-0.85878 6.6265-14.285 6.5397-6.72-0.043-12.78-0.306-13.47-0.583zm-60.33-30.588c-4.9572-3.8066-14.502-14.504-13.677-15.329 1.1697-1.1697 7.1147 2.9204 13.823 9.5102 3.812 3.7446 6.931 7.317 6.931 7.9386 0 2.0233-2.757 1.1975-7.0769-2.1197zm-34.56-23.774c-10.41-1.096-13.18-3.174-3.36-2.519 4.125 0.27511 8.911 0.51418 10.636 0.53128 1.7245 0.0171 3.6921 0.70177 4.3724 1.5215 1.4176 1.7081 0.48896 1.7454-11.647 0.46666z"/>
  <metadata>
    <rdf:RDF>
      <cc:Work>
        <dc:format>image/svg+xml</dc:format>
        <dc:type rdf:resource="http://purl.org/dc/dcmitype/StillImage"/>
        <cc:license rdf:resource="http://creativecommons.org/licenses/publicdomain/"/>
        <dc:publisher>
          <cc:Agent rdf:about="http://openclipart.org/">
            <dc:title>Openclipart</dc:title>
          </cc:Agent>
        </dc:publisher>
        <dc:title>Nightingale_Marx_Lenin</dc:title>
        <dc:date>2012-05-10T02:38:37</dc:date>
        <dc:description>All lived and made their mark during the same period.</dc:description>
        <dc:source>http://openclipart.org/detail/169954/nightingale_marx_lenin-by-bedpanner</dc:source>
        <dc:creator>
          <cc:Agent>
            <dc:title>bedpanner</dc:title>
          </cc:Agent>
        </dc:creator>
        <dc:subject>
          <rdf:Bag>
            <rdf:li>care</rdf:li>
            <rdf:li>clip art</rdf:li>
            <rdf:li>clipart</rdf:li>
            <rdf:li>florence</rdf:li>
            <rdf:li>health</rdf:li>
            <rdf:li>hero</rdf:li>
            <rdf:li>nightingale</rdf:li>
            <rdf:li>nurse</rdf:li>
            <rdf:li>nursing</rdf:li>
            <rdf:li>trade</rdf:li>
            <rdf:li>union</rdf:li>
            <rdf:li>worker</rdf:li>
          </rdf:Bag>
        </dc:subject>
      </cc:Work>
      <cc:License rdf:about="http://creativecommons.org/licenses/publicdomain/">
        <cc:permits rdf:resource="http://creativecommons.org/ns#Reproduction"/>
        <cc:permits rdf:resource="http://creativecommons.org/ns#Distribution"/>
        <cc:permits rdf:resource="http://creativecommons.org/ns#DerivativeWorks"/>
      </cc:License>
    </rdf:RDF>
  </metadata>
</svg>
